<svg width="56" height="56" viewBox="0 0 56 56" fill="none" xmlns="http://www.w3.org/2000/svg">
<rect width="56" height="56" rx="14" fill="#E6FFCC"/>
<path d="M14.7903 33.741C14.7903 35.5073 13.5596 36.9535 12.056 36.9535C10.5525 36.9535 9.32031 35.5088 9.32031 33.741V23.2276C9.32031 21.4612 10.551 20.0151 12.056 20.0151C13.561 20.0151 14.7903 21.4612 14.7903 23.2276V33.741ZM46.678 33.741C46.678 35.5073 45.4473 36.9535 43.9423 36.9535C42.4373 36.9535 41.2066 35.5088 41.2066 33.741V23.2276C41.2066 21.4612 42.4373 20.0151 43.9423 20.0151C45.4473 20.0151 46.678 21.4612 46.678 23.2276V33.741ZM33.9789 9.85358L35.7337 6.7043C35.8774 6.44724 35.8343 6.14711 35.6404 6.0394C35.4465 5.9317 35.1679 6.05233 35.0258 6.30938L33.2307 9.5319C31.5443 8.87606 29.7497 8.54286 27.9403 8.54964C26.0303 8.54964 24.2237 8.90865 22.6125 9.5477L20.8088 6.31082C20.6652 6.05376 20.388 5.9317 20.1942 6.04084C20.0003 6.14998 19.9572 6.44868 20.1008 6.70574L21.8643 9.87081C18.1952 11.5941 15.7237 14.8295 15.7237 18.5374C15.7237 18.9137 15.751 19.2856 15.7998 19.6518H40.0821C40.1324 19.2856 40.1582 18.9151 40.1582 18.5374C40.1582 14.818 37.671 11.574 33.9818 9.85501L33.9789 9.85358ZM22.3942 15.3508C22.2539 15.3508 22.115 15.3232 21.9853 15.2695C21.8557 15.2158 21.7379 15.1371 21.6387 15.0379C21.5395 14.9387 21.4608 14.8209 21.4071 14.6913C21.3534 14.5616 21.3258 14.4227 21.3258 14.2824C21.3258 14.1421 21.3534 14.0031 21.4071 13.8735C21.4608 13.7439 21.5395 13.6261 21.6387 13.5269C21.7379 13.4277 21.8557 13.349 21.9853 13.2953C22.115 13.2416 22.2539 13.214 22.3942 13.214C22.6776 13.214 22.9493 13.3265 23.1497 13.5269C23.3501 13.7273 23.4626 13.999 23.4626 14.2824C23.4626 14.5657 23.3501 14.8375 23.1497 15.0379C22.9493 15.2382 22.6776 15.3508 22.3942 15.3508ZM33.5438 15.3508C33.4034 15.3508 33.2645 15.3232 33.1349 15.2695C33.0053 15.2158 32.8875 15.1371 32.7883 15.0379C32.6891 14.9387 32.6104 14.8209 32.5567 14.6913C32.503 14.5616 32.4753 14.4227 32.4753 14.2824C32.4753 14.1421 32.503 14.0031 32.5567 13.8735C32.6104 13.7439 32.6891 13.6261 32.7883 13.5269C32.8875 13.4277 33.0053 13.349 33.1349 13.2953C33.2645 13.2416 33.4034 13.214 33.5438 13.214C33.8271 13.214 34.0989 13.3265 34.2992 13.5269C34.4996 13.7273 34.6122 13.999 34.6122 14.2824C34.6122 14.5657 34.4996 14.8375 34.2992 15.0379C34.0989 15.2382 33.8271 15.3508 33.5438 15.3508ZM15.7208 20.7131V38.6222H15.7309C15.8558 40.1343 17.2474 41.3363 18.9333 41.3363H36.9429C38.6274 41.3363 40.0189 40.1343 40.1453 38.6222H40.1554V20.7131H15.7223H15.7208ZM26.1897 41.2473V46.7876C26.1897 48.5539 24.959 50 23.454 50C21.949 50 20.7197 48.5539 20.7197 46.7876V41.2516L26.1897 41.2473ZM35.3058 41.2444V46.7876C35.3058 48.5539 34.0751 50 32.5701 50C31.0651 50 29.8344 48.5539 29.8344 46.7876V41.2444H35.3058Z" fill="#6FC958"/>
</svg>
