<svg width="56" height="56" viewBox="0 0 56 56" fill="none" xmlns="http://www.w3.org/2000/svg">
<rect width="56" height="56" rx="12.4444" fill="#2D395D"/>
<path d="M19.9636 24.5623C19.1326 24.6828 18.1736 25.1221 17.3828 25.6141C16.1201 26.3974 15.3971 26.1162 15.3971 26.1162C15.3971 26.1162 15.8238 25.9957 16.1753 25.6643C16.6272 25.2376 16.469 24.989 16.0247 24.9865C15.4925 24.984 15.4096 25.451 14.6791 26.1288C14.1519 26.6208 13.5921 26.9045 12.987 26.9823C12.1636 27.0852 11.6289 26.7313 11.6289 26.7313C11.6289 26.7313 12.0657 26.8091 12.608 26.6058C13.5117 26.2668 12.8314 25.815 11.3753 26.2166C10.1578 26.553 9.17117 25.7321 8.76197 25.2351C7.98373 24.2886 8.31009 22.7798 8.31009 22.7798C8.31009 22.7798 8.78707 24.1104 10.6197 24.3388C11.408 24.4342 12.0004 24.1129 12.0004 24.1129C12.0004 24.1129 11.3954 24.0853 11.0214 23.8116C10.3687 23.3346 10.695 22.5313 10.695 22.5313C10.695 22.5313 12.0255 23.8618 14.8272 23.2091C17.5385 22.5765 19.4816 22.8953 20.7443 23.2543C22.0071 23.6133 22.8305 24.1606 22.8305 24.1606C23.1142 24.0401 23.4179 23.8418 23.7368 23.8141C24.4096 23.7187 25.0673 23.7464 25.7225 23.8392C26.802 24.0275 27.7936 24.4342 28.9509 24.3313C29.4932 24.271 30.0204 23.8141 30.3041 23.3397C30.3041 23.3397 29.8673 23.533 29.1995 23.4376C28.1677 23.292 27.9317 22.569 27.9317 22.569C27.9317 22.569 29.5886 22.8125 30.1233 21.861C30.1233 21.861 29.6589 21.9765 29.0062 21.7003C28.3108 21.4066 28.4438 20.9598 27.8162 20.6786C27.3744 20.4803 26.8723 20.5807 26.8723 20.5807C26.8723 20.5807 27.6204 19.4836 28.9284 19.7598C30.8313 20.164 30.8438 19.2928 30.8438 19.2928C30.8438 19.2928 30.4647 19.3656 30.0832 19.2276C28.956 18.8184 29.1141 18.364 27.7007 18.4694C27.7007 18.4694 28.4137 17.3648 29.6639 17.4652C31.1175 17.5807 31.607 16.9606 31.607 16.9606C31.607 16.9606 30.5878 17.0334 29.8698 15.8862C29.8698 15.8862 31.2882 16.2753 32.689 15.3288C33.6681 14.6686 34.5166 14.5757 34.5166 14.5757C34.2731 13.8151 34.7024 12.8159 34.9208 12.5222C35.1417 12.2259 35.2823 12.0954 35.4906 12C35.4906 12 35.7442 13.4159 36.0455 13.7523C36.0982 13.6845 36.1634 13.4987 36.3467 13.1975C36.5902 12.7933 37.1275 12.1983 37.4965 12.1983C37.4965 12.1983 37.5065 12.7155 37.4864 13.3205C37.4689 13.923 37.4086 14.2293 37.4086 14.2293C37.4086 14.2293 37.6597 14.5481 37.863 14.8644C38.0664 15.1807 38.6513 15.9715 38.6513 16.6267C39.0605 17.7489 39.9567 19.3782 39.9191 20.0184C39.9065 20.2568 39.8513 20.7338 39.5049 21.0803C39.3492 21.2334 39.0228 21.364 38.7367 21.3213C38.1668 21.261 38.0714 20.6058 37.6923 20.3196C37.1927 20.0861 36.6404 19.9129 36.2965 19.3958C36.2111 19.3782 36.2538 19.4736 36.2538 19.4736C36.2538 19.4736 36.7258 21.4794 36.8086 22.4008C36.8764 23.1338 36.9793 24.6777 37.012 25.0367C37.0421 25.3957 37.4538 26.5254 37.494 26.8317C37.5517 27.2886 37.6095 28.3731 37.607 28.9455C38.1216 29.4928 40.5366 32.0057 40.9709 32.4225C41.4053 32.8392 42.4421 33.9312 41.9149 34.3103C41.4906 34.7321 40.868 34.7647 40.1325 34.8977C39.7885 34.9605 39.2287 35.086 39.2287 35.086C39.2287 35.086 39.7007 35.6835 40.5592 36.9287C41.3249 38.0458 42.309 38.6785 42.6278 39.2483C42.904 39.7379 43.8554 41.0885 43.8881 41.2416C43.9207 41.3973 43.9483 41.4324 43.8881 41.5103C43.5743 41.6985 43.0446 41.6559 42.5601 41.6383C42.0755 41.6207 41.8797 41.5931 41.8019 41.4425C41.6739 41.1939 41.6538 40.7245 41.4203 40.5186C40.8253 40.0442 40.7299 39.3538 40.6019 38.6885C40.4538 38.2065 39.9366 37.7546 39.6178 37.5237C38.1291 36.4592 36.9693 35.558 36.9693 35.558C36.9693 35.558 36.4722 35.7036 35.8572 35.8793C35.4982 35.9823 35.1969 36.1228 34.6195 36.2484C34.1877 36.3438 34.0346 36.5019 33.4647 36.5571C32.6915 36.6325 31.6848 35.9973 31.6296 35.8592C31.5267 35.5956 31.8078 35.4626 31.8078 35.4626C31.8078 35.4626 33.0882 34.8224 33.284 35.0459C33.422 35.204 33.5677 35.3195 33.7785 35.2542C33.9944 35.189 33.8413 34.9003 34.135 34.7547C34.2103 34.717 34.5417 34.6442 34.7199 34.6643C34.971 34.6894 35.4053 34.6065 35.4053 34.6065C34.6346 34.2224 33.4848 33.6827 32.6212 32.8367C32.6212 32.8367 32.197 32.917 31.007 32.6986C30.4447 32.5957 29.9702 32.4501 29.5108 32.2894C29.5108 32.2894 29.448 32.6409 29.3526 32.7337C28.9108 33.3714 28.2455 33.6099 27.9694 34.3103C27.9618 34.4308 27.9091 34.5086 27.9543 34.6291C28.0924 35.2768 28.7476 35.6534 29.1367 35.9848C29.5233 36.3161 29.9903 36.6952 30.3794 36.9513C30.7309 37.1823 31.0095 37.6065 31.2932 37.9781C31.5442 38.1513 31.8882 38.3571 32.0764 38.6333C32.3877 39.0475 32.6338 39.4617 32.576 39.9337C32.5384 40.1044 30.4748 40.009 30.4748 40.009C30.3342 39.9237 30.2991 39.8433 30.2865 39.6124C30.274 39.3839 30.4823 38.9421 30.1836 38.7186C29.8848 38.4952 29.4028 38.3822 29.2673 37.9253C29.1292 37.2952 28.4991 36.881 27.9568 36.6074C27.171 36.1931 26.2648 36.0551 25.4639 35.6835C25.2405 35.5454 25.0146 35.322 25.0497 35.0459C25.0497 34.5187 25.3811 34.4032 25.6798 33.8459C26.4305 32.445 26.3175 31.5237 26.3175 31.5237C26.3175 31.5237 25.5769 31.4534 24.161 31.5036C23.4882 32.9622 22.0472 34.3003 20.6841 35.1438C19.8305 35.7387 19.6046 36.7655 19.3987 37.6617C19.0799 38.5429 18.9845 39.4743 18.3468 40.1973C17.9326 40.8952 17.2774 41.5153 16.5946 41.8843C16.4213 41.9546 16.0724 42.0776 15.9243 41.932C15.8289 41.8542 15.869 40.2375 15.869 40.2375C15.9042 40.0818 15.9996 39.9663 16.1628 39.9312C16.3862 39.8458 16.7828 40.2575 16.8782 39.7655C16.9736 39.276 17.4807 39.3312 17.8447 38.799C18.2514 37.9379 18.382 37.0718 18.2414 35.9797C18.1008 34.8852 17.8799 34.0643 18.5427 33.7028C20.2849 32.7488 20.3753 31.7421 20.3552 29.4752C20.3351 27.389 21.1786 25.9455 22.0071 24.9941C22.0046 24.989 21.2464 24.374 19.9636 24.5623ZM36.2011 31.8651C35.8522 32.0258 35.7241 32.0936 35.7241 32.0936C35.7241 32.0936 36.2212 32.3898 36.8036 32.799C37.499 33.2886 38.2044 33.8434 38.2044 33.8434C38.2044 33.8434 38.5383 33.7404 38.8069 33.6551C39.6806 33.3839 39.412 33.2258 37.7626 32.2768C36.8262 31.7396 36.7534 31.6091 36.2011 31.8651ZM37.9233 15.8636C37.3559 14.9297 37.1701 14.8268 36.6756 14.8845C35.9551 14.9648 36.2689 15.9539 36.4923 16.3155C36.7183 16.677 37.4839 17.056 37.9383 17.8368C38.3927 18.6175 38.8622 19.4661 39.2187 20.1589C39.3743 20.4602 39.7283 20.2468 39.3793 19.3882C39.1609 18.856 38.9827 18.4845 38.7643 18.0326C38.5634 17.6184 38.2597 17.0209 38.2496 16.6644C38.2421 16.5062 38.1492 16.2326 37.9233 15.8636Z" fill="white"/>
</svg>
