<svg width="56" height="56" viewBox="0 0 56 56" fill="none" xmlns="http://www.w3.org/2000/svg">
<rect width="56" height="56" rx="12.3592" fill="white"/>
<path fill-rule="evenodd" clip-rule="evenodd" d="M12.0307 20.0784H45.0113C45.9094 20.0671 46.7751 20.4129 47.4182 21.0399C48.0612 21.6668 48.4289 22.5235 48.4404 23.4215V32.5784C48.4289 33.4765 48.0612 34.3332 47.4182 34.9602C46.7751 35.5872 45.9094 35.9332 45.0113 35.9219H12.0307C11.1326 35.9332 10.2669 35.5872 9.6238 34.9602C8.98075 34.3332 8.61305 33.4765 8.60156 32.5784V23.4215C8.61305 22.5235 8.98077 21.6668 9.62383 21.0399C10.2669 20.4129 11.1326 20.0671 12.0307 20.0784ZM12.0307 20.97H45.0113C45.6698 20.9617 46.3047 21.2154 46.7762 21.6751C47.2478 22.1348 47.5175 22.763 47.5261 23.4215V32.5784C47.5176 33.237 47.248 33.8653 46.7764 34.3251C46.3048 34.7849 45.6699 35.0386 45.0113 35.0304H12.0307C11.3721 35.0386 10.7372 34.7849 10.2656 34.3251C9.79403 33.8653 9.52437 33.237 9.51594 32.5784V23.4215C9.52448 22.763 9.79418 22.1348 10.2657 21.6751C10.7373 21.2154 11.3721 20.9617 12.0307 20.97Z" fill="#E5000B"/>
<path d="M44.989 35.9998H12.0083C11.0898 36.0099 10.2046 35.6555 9.54701 35.0141C8.88938 34.3727 8.51286 33.4968 8.5 32.5783V23.4213C8.51286 22.5027 8.8895 21.6267 9.54732 20.9854C10.2051 20.344 11.0904 19.9898 12.0091 20.0002H44.989C45.9077 19.9896 46.7933 20.3437 47.4513 20.9851C48.1092 21.6264 48.486 22.5026 48.4989 23.4213V32.5783C48.486 33.4969 48.1094 34.373 47.4516 35.0144C46.7938 35.6558 45.9084 36.0101 44.9898 35.9998H44.989ZM12.0083 20.1562C11.1317 20.1464 10.2869 20.4846 9.65923 21.0967C9.03157 21.7087 8.67222 22.5447 8.66 23.4213V32.5783C8.67222 33.4551 9.03166 34.2912 9.65949 34.9034C10.2873 35.5155 11.1323 35.8537 12.0091 35.8438H44.989C45.8658 35.8537 46.7107 35.5155 47.3386 34.9034C47.9664 34.2912 48.3258 33.4551 48.3381 32.5783V23.4213C48.3258 22.5446 47.9664 21.7085 47.3385 21.0964C46.7107 20.4843 45.8657 20.1462 44.989 20.1562H12.0083ZM44.989 35.1082H12.0083C11.329 35.1159 10.6744 34.8539 10.188 34.3796C9.70154 33.9054 9.42306 33.2576 9.41357 32.5783V23.4213C9.42306 22.7421 9.70156 22.0943 10.188 21.6201C10.6744 21.1459 11.329 20.884 12.0083 20.8918H44.989C45.6682 20.884 46.3229 21.1459 46.8093 21.6201C47.2957 22.0943 47.5742 22.7421 47.5837 23.4213V32.5783C47.5742 33.2576 47.2957 33.9054 46.8093 34.3796C46.3229 34.8539 45.6683 35.1159 44.989 35.1082ZM12.0083 21.0494C11.3709 21.0421 10.7567 21.2879 10.3003 21.7329C9.84387 22.1778 9.58253 22.7856 9.57357 23.4229V32.5799C9.58242 33.2173 9.84372 33.8252 10.3001 34.2702C10.7566 34.7152 11.3709 34.9611 12.0083 34.9538H44.989C45.6264 34.9611 46.2407 34.7152 46.6971 34.2702C47.1535 33.8252 47.4148 33.2173 47.4237 32.5799V23.4213C47.4147 22.784 47.1534 22.1762 46.697 21.7313C46.2406 21.2863 45.6263 21.0405 44.989 21.0478L12.0083 21.0494Z" fill="#E5000B"/>
<path fill-rule="evenodd" clip-rule="evenodd" d="M29.0097 23.4627C29.1868 23.53 29.3411 23.6465 29.4545 23.7983C29.4972 23.9115 29.517 24.0319 29.5128 24.1528C29.5086 24.2736 29.4805 24.3924 29.4301 24.5023C29.3933 24.591 29.3323 24.6675 29.2541 24.7231C29.1758 24.7787 29.0835 24.8111 28.9877 24.8167C28.8924 24.8257 28.8 24.8547 28.7167 24.9019C28.6333 24.949 28.5609 25.0132 28.5041 25.0903C28.3413 25.3479 28.2597 27.0826 28.2425 27.2174L28.1281 28.1078C27.7681 30.8893 26.7746 32.2649 24.4058 32.4229C23.9213 32.4523 23.4355 32.4523 22.9511 32.4229C21.7771 32.3829 19.81 31.6729 19.8268 30.3554L19.8356 29.6614L20.2779 25.8479C20.3277 25.6014 20.3277 25.3475 20.2779 25.1011C20.2455 24.9603 20.1059 24.9355 19.9631 24.9055C19.798 24.8711 19.6292 24.8299 19.618 24.5963C19.6115 24.3581 19.6457 24.1206 19.7192 23.8939C19.7759 23.775 19.8605 23.6716 19.9658 23.5925C20.0711 23.5134 20.194 23.4609 20.3239 23.4395C20.7304 23.3382 21.1478 23.288 21.5667 23.29C22.0393 23.2721 22.5124 23.2789 22.9843 23.3104C23.5674 23.334 24.6642 23.394 24.6642 24.1407C24.6642 25.2407 23.4998 24.1387 23.3279 26.5499C23.2479 27.6838 23.0499 28.859 23.0479 28.9562C23.0479 28.9562 23.0355 29.2466 23.0403 29.4858C23.0403 29.5114 23.0455 29.6354 23.0503 29.6726C23.1003 29.9073 23.2138 30.1238 23.3784 30.2984C23.5431 30.4731 23.7525 30.5992 23.9838 30.6629C24.0286 30.6713 24.147 30.6865 24.1902 30.6901C24.2982 30.6976 24.4065 30.6984 24.5146 30.6925C24.5606 30.6897 24.739 30.6661 24.7634 30.6621C25.5862 30.5153 26.3338 29.0678 26.437 26.9886C26.4874 25.9351 26.597 25.2603 26.4566 25.0819C26.1814 24.8559 25.4542 24.7903 25.4542 24.0203C25.4542 23.3983 26.273 23.3104 26.8286 23.3104H28.1649C28.4513 23.3295 28.7347 23.3806 29.0097 23.4627Z" fill="#E5000B"/>
<path d="M23.8029 32.5241C23.6121 32.5241 23.4337 32.5177 23.2081 32.5097L22.9701 32.5013C21.8806 32.4649 19.7522 31.7785 19.7702 30.3545L19.7798 29.6525L20.2222 25.839C20.2278 25.7275 20.2386 25.6427 20.247 25.5743C20.273 25.4225 20.2649 25.2669 20.2234 25.1187C20.2054 25.0387 20.1358 25.0171 19.9834 24.9847L19.9706 24.9823C19.8142 24.9495 19.5778 24.8999 19.5634 24.6003C19.556 24.3488 19.5931 24.098 19.673 23.8595C19.7354 23.7315 19.8272 23.6201 19.9407 23.5342C20.0543 23.4483 20.1865 23.3904 20.3266 23.3651C20.7395 23.2619 21.1637 23.2105 21.5894 23.2119C21.7865 23.2065 21.9837 23.2036 22.1809 23.2031C22.4477 23.2031 22.5949 23.2115 22.7509 23.2199C22.8309 23.2243 22.9109 23.2287 23.0117 23.2323C23.5373 23.2531 24.7673 23.3027 24.7673 24.1407C24.7881 24.2968 24.7506 24.455 24.662 24.5852C24.5735 24.7153 24.4401 24.8083 24.2873 24.8463C23.9497 24.9919 23.5297 25.1727 23.4309 26.5554C23.3733 27.3602 23.2573 28.1882 23.1949 28.633C23.1725 28.793 23.1549 28.9326 23.1525 28.9566C23.1525 28.9626 23.1401 29.2506 23.1449 29.4845C23.1449 29.5133 23.1501 29.6313 23.1541 29.6629C23.2029 29.8809 23.3095 30.0818 23.4627 30.2443C23.6159 30.4068 23.8101 30.525 24.0249 30.5865C24.0649 30.5941 24.1813 30.6089 24.2249 30.6129C24.3292 30.6199 24.4337 30.6206 24.5381 30.6149C24.5801 30.6125 24.7549 30.5897 24.7781 30.5853C25.4949 30.4577 26.2784 29.1798 26.3872 26.9854C26.4016 26.6842 26.4208 26.415 26.4376 26.1778C26.4975 25.8335 26.4942 25.4811 26.428 25.1379C26.3449 25.0807 26.256 25.0323 26.1628 24.9935C25.9483 24.9351 25.7584 24.809 25.6215 24.6339C25.4845 24.4588 25.4078 24.2441 25.4029 24.0219C25.4029 23.4991 25.8916 23.2339 26.8552 23.2339H28.1916C28.4845 23.2535 28.7742 23.3062 29.0552 23.3911C29.2546 23.4652 29.427 23.5979 29.5495 23.7719C29.596 23.8938 29.6179 24.0238 29.6139 24.1542C29.61 24.2846 29.5804 24.413 29.5267 24.5319C29.4857 24.6336 29.4169 24.7218 29.3282 24.7864C29.2396 24.8511 29.1346 24.8895 29.0252 24.8975C28.9402 24.9045 28.8578 24.9296 28.7833 24.9709C28.7088 25.0123 28.644 25.0691 28.5932 25.1375C28.4546 25.7472 28.3767 26.3691 28.3608 26.9942C28.352 27.1254 28.3464 27.2046 28.3432 27.2342L28.2284 28.1246C27.8472 31.0845 26.7484 32.3533 24.4341 32.5077C24.1977 32.5233 24.0037 32.5305 23.8045 32.5305L23.8029 32.5241ZM19.935 29.6665L19.9262 30.3565C19.9098 31.6733 21.9374 32.3109 22.9753 32.3453L23.2153 32.3537C23.4393 32.3617 23.6153 32.3681 23.8041 32.3681C23.9997 32.3681 24.1905 32.3613 24.4233 32.3457C26.6464 32.1973 27.7032 30.9665 28.0732 28.0986L28.1868 27.2074C28.1896 27.1838 28.1956 27.093 28.2036 26.9782C28.2062 26.3267 28.2924 25.6783 28.46 25.0487C28.5224 24.963 28.602 24.8914 28.6938 24.8383C28.7855 24.7853 28.8874 24.752 28.9928 24.7407C29.0757 24.7378 29.1561 24.7113 29.2245 24.6642C29.2929 24.6172 29.3464 24.5515 29.3787 24.4751C29.4256 24.3743 29.452 24.2653 29.4563 24.1543C29.4607 24.0432 29.4431 23.9325 29.4043 23.8283C29.2987 23.6977 29.1608 23.5968 29.0044 23.5355C28.7396 23.4567 28.4671 23.4069 28.1916 23.3871H26.8532C25.9928 23.3871 25.5569 23.5999 25.5569 24.0191C25.5569 24.5371 25.9132 24.6991 26.2252 24.8495C26.3369 24.8999 26.4432 24.9613 26.5428 25.0327C26.6476 25.1103 26.6356 25.5403 26.59 26.187C26.5728 26.4234 26.554 26.6918 26.5396 26.991C26.44 29.0006 25.7092 30.5761 24.8021 30.7377C24.7737 30.7425 24.5933 30.7665 24.5441 30.7693C24.4323 30.7755 24.3202 30.7747 24.2085 30.7669C24.1367 30.7598 24.0652 30.7504 23.9941 30.7385C23.746 30.6726 23.5213 30.5387 23.3452 30.3519C23.169 30.1651 23.0486 29.9329 22.9973 29.6813C22.9919 29.6164 22.9884 29.5513 22.9869 29.4861C22.9821 29.2462 22.9945 28.9546 22.9945 28.9514C22.9945 28.9222 23.0069 28.8314 23.0381 28.6102C23.1001 28.1674 23.2157 27.3426 23.2729 26.543C23.3785 25.0655 23.8665 24.8555 24.2233 24.7031C24.3475 24.6769 24.4569 24.6038 24.5288 24.4991C24.6007 24.3944 24.6295 24.2661 24.6093 24.1407C24.6093 23.5343 23.7977 23.4207 23.0037 23.3883C22.9017 23.3847 22.8193 23.3799 22.7405 23.3755C22.5869 23.3671 22.4413 23.3591 22.1805 23.3591C22.0206 23.3591 21.829 23.3619 21.593 23.3679C21.1809 23.3661 20.7701 23.4154 20.3702 23.5147C19.9786 23.6299 19.8674 23.7947 19.8146 23.9235C19.7435 24.1401 19.7112 24.3676 19.719 24.5955C19.7266 24.7555 19.8154 24.7907 20.0022 24.8295L20.015 24.8319C20.1574 24.8615 20.335 24.8987 20.375 25.0835C20.4204 25.2496 20.4294 25.4235 20.4014 25.5935C20.3899 25.6794 20.3817 25.7657 20.377 25.8522L19.9346 29.6665H19.935Z" fill="#E5000B"/>
<path fill-rule="evenodd" clip-rule="evenodd" d="M19.1434 23.5553C19.2505 23.5757 19.351 23.6221 19.436 23.6904C19.521 23.7588 19.588 23.8469 19.631 23.9472C19.6739 24.0474 19.6916 24.1567 19.6825 24.2654C19.6733 24.374 19.6377 24.4788 19.5785 24.5705C19.4985 24.7857 19.3229 24.8037 19.1386 24.8389C19.0261 24.8534 18.9185 24.8937 18.8242 24.9565C18.6512 25.2114 18.5541 25.5102 18.5442 25.8181C18.4434 26.4896 18.4178 27.4216 18.1042 29.2868C17.7226 31.5667 15.4439 32.4335 14.0075 32.4335C13.7654 32.4491 13.5225 32.4491 13.2803 32.4335C12.2287 32.3935 10.6836 31.7267 10.6836 30.4559C10.6851 30.0131 10.8619 29.5889 11.1754 29.2762C11.4889 28.9634 11.9135 28.7876 12.3563 28.7872C12.5011 28.7764 12.6467 28.7864 12.7887 28.8168C13.0634 28.8485 13.3172 28.9786 13.5032 29.1832C13.6892 29.3877 13.7948 29.6527 13.8003 29.9291C13.7603 30.3743 13.4207 30.4999 13.5327 30.7115C13.5829 30.7855 13.6527 30.8441 13.7343 30.8805C13.8159 30.917 13.9061 30.9299 13.9947 30.9179C14.4907 30.8255 14.7803 30.2227 15.0747 28.4308C15.1759 27.8244 15.3123 26.346 15.3123 26.1232C15.3646 25.7684 15.3711 25.4082 15.3319 25.0517C15.2119 24.9533 14.8655 24.9917 14.7103 24.9681C14.6209 24.9461 14.5406 24.8967 14.4807 24.8268C14.4209 24.7568 14.3845 24.6698 14.3767 24.5781C14.3669 24.4473 14.3742 24.3158 14.3983 24.1869C14.4127 23.6505 15.1043 23.3593 16.593 23.3281L18.0934 23.3317C18.4537 23.3414 18.8091 23.4171 19.1422 23.5549L19.1434 23.5553Z" fill="#E5000B"/>
<path d="M13.589 32.5267C13.4878 32.528 13.3865 32.5235 13.2858 32.5131C12.215 32.4731 10.6211 31.7931 10.6211 30.4579C10.6213 30.2283 10.6666 30.001 10.7546 29.789C10.8427 29.577 10.9716 29.3844 11.134 29.2222C11.2965 29.0599 11.4893 28.9313 11.7015 28.8437C11.9137 28.756 12.1411 28.711 12.3706 28.7112C12.5021 28.701 12.6343 28.7084 12.7638 28.7332L12.8162 28.7416C13.1112 28.775 13.3838 28.9151 13.5827 29.1356C13.7816 29.356 13.8931 29.6415 13.8962 29.9383C13.8758 30.1257 13.8052 30.3041 13.6918 30.4547C13.6118 30.5747 13.589 30.6179 13.6202 30.6775C13.6585 30.7316 13.7097 30.7753 13.7691 30.8047C13.8286 30.8341 13.8944 30.8482 13.9606 30.8459C13.974 30.8463 13.9874 30.8455 14.0006 30.8435C14.4662 30.7571 14.7422 30.1003 15.019 28.4204C15.1186 27.8204 15.2554 26.354 15.2554 26.1257C15.2554 26.0541 15.2658 25.9549 15.2774 25.8397C15.316 25.5958 15.3187 25.3475 15.2854 25.1029C15.1677 25.0671 15.0446 25.0522 14.9218 25.0589C14.855 25.0592 14.7882 25.0556 14.7218 25.0481C14.6141 25.0233 14.5172 24.9647 14.4452 24.8808C14.3732 24.797 14.33 24.6923 14.3218 24.5821C14.3117 24.4473 14.319 24.3118 14.3434 24.1789C14.3666 23.5873 15.1094 23.2845 16.6145 23.2529L18.1169 23.2565C18.4868 23.2661 18.8517 23.3436 19.1936 23.4849C19.3726 23.5381 19.5318 23.643 19.6512 23.7865L19.6596 23.7997C19.7201 23.924 19.7526 24.06 19.7551 24.1981C19.7576 24.3363 19.7299 24.4733 19.674 24.5997C19.6355 24.6915 19.571 24.7699 19.4884 24.8255C19.4058 24.881 19.3088 24.9111 19.2092 24.9121L19.1733 24.9189C19.0725 24.9317 18.976 24.9671 18.8909 25.0225C18.8265 25.0681 18.7309 25.2449 18.6397 25.8333C18.6026 26.1002 18.5723 26.368 18.5489 26.6364C18.4661 27.5292 18.3502 28.4186 18.2013 29.3028C17.8073 31.6595 15.4894 32.5147 14.0278 32.5147C14.0302 32.5147 13.8094 32.5279 13.5938 32.5279L13.589 32.5267ZM12.5042 28.8636C12.4694 28.8636 12.4278 28.8636 12.3754 28.8672C11.9527 28.8672 11.5471 29.0345 11.2473 29.3325C10.9476 29.6306 10.7779 30.0352 10.7755 30.4579C10.7755 31.6895 12.2802 32.3195 13.2954 32.3575C13.3919 32.3675 13.4888 32.372 13.5858 32.3707C13.7966 32.3707 14.013 32.3575 14.015 32.3575C15.375 32.3575 17.6641 31.5207 18.0397 29.2756C18.2445 28.0512 18.3261 27.2236 18.3853 26.6196C18.4173 26.2956 18.4425 26.0401 18.4773 25.8085C18.5629 25.2629 18.6569 24.9897 18.7917 24.8949C18.8951 24.8257 19.0131 24.7811 19.1365 24.7645L19.1733 24.7573C19.3564 24.7237 19.4628 24.6973 19.5196 24.5453C19.5684 24.4408 19.5935 24.3268 19.593 24.2114C19.5926 24.0961 19.5667 23.9823 19.5172 23.8781C19.4148 23.7592 19.2798 23.6728 19.1289 23.6297C18.8034 23.4952 18.4561 23.4215 18.1041 23.4121L16.6077 23.4085C15.217 23.4373 14.5042 23.7009 14.491 24.1913L14.4886 24.2081C14.4668 24.3291 14.4603 24.4523 14.4694 24.5749V24.5849C14.4782 24.6573 14.5085 24.7253 14.5563 24.7803C14.6042 24.8354 14.6674 24.8748 14.7378 24.8937C14.7977 24.8998 14.8579 24.9028 14.9182 24.9025C15.0837 24.8853 15.2506 24.9172 15.3982 24.9941L15.4162 25.0089L15.423 25.0313C15.4723 25.3036 15.4739 25.5824 15.4278 25.8553C15.4167 25.9449 15.4096 26.035 15.4066 26.1252C15.4066 26.3568 15.2686 27.8416 15.1666 28.4452C14.873 30.2259 14.5734 30.8939 14.0226 30.9963C14.0004 30.9998 13.9779 31.0014 13.9554 31.0011C13.8602 31.006 13.7654 30.9853 13.681 30.941C13.5965 30.8968 13.5255 30.8306 13.4754 30.7495C13.3982 30.6031 13.4782 30.4831 13.5554 30.3671C13.6546 30.2384 13.7166 30.085 13.7346 29.9235C13.7258 29.6671 13.6254 29.4222 13.4515 29.2335C13.2777 29.0447 13.0419 28.9246 12.787 28.8948L12.7342 28.8864C12.6569 28.871 12.5783 28.8631 12.4994 28.8628L12.5042 28.8636Z" fill="#E5000B"/>
<path fill-rule="evenodd" clip-rule="evenodd" d="M41.3513 26.6763C41.6613 26.5619 42.0361 27.8499 42.0361 28.2307C42.0361 28.8095 41.5053 28.7151 41.2541 28.7135C41.2417 28.7135 41.1985 28.7115 41.1901 28.7135C40.9469 28.7187 40.4405 28.6487 40.4765 28.3195C40.5457 27.6923 41.0185 26.7995 41.3513 26.6795V26.6763ZM30.3516 23.3688C30.5069 23.3484 30.6631 23.3358 30.8196 23.3312C31.6828 23.3004 32.4647 23.2848 33.4719 23.3312C34.3583 23.374 34.5323 23.7428 34.5287 24.1784C34.5207 25.1728 33.6539 24.4904 33.3491 25.1812C33.2304 25.7259 33.1502 26.2783 33.1091 26.8343C33.0859 27.2307 32.8487 29.1879 32.8203 29.781C32.8059 29.9477 32.8027 30.1151 32.8107 30.2822C32.8507 30.6362 33.2507 30.7378 33.7171 30.7826C35.5627 30.9606 34.9171 29.1827 36.329 29.1827C37.0714 29.1827 37.0566 29.997 36.919 30.8814L39.6417 26.3615C40.5941 24.8728 39.8689 23.2656 41.8629 23.2656C43.6628 23.2656 44.0324 25.1592 44.4872 27.1083C44.6904 27.9675 44.8968 28.8258 45.1064 29.6834C45.5408 31.7986 46.2579 30.6386 46.2955 31.649C46.3199 32.2938 45.594 32.467 44.89 32.4942C44.1399 32.5189 43.3891 32.5157 42.6393 32.4846C42.4525 32.477 41.4501 32.4346 41.4501 31.8358C41.4501 31.043 42.4721 31.2782 42.2757 30.6562C42.2169 30.4694 42.0549 30.3338 41.6073 30.3222C41.1097 30.3106 40.8501 30.3222 40.2901 30.3222C40.0445 30.3222 39.2582 30.273 39.219 30.8134C39.1874 31.2534 40.0445 30.911 40.0445 31.7278C40.0445 32.385 38.653 32.5278 38.3342 32.5238L37.4006 32.5142C36.9928 32.5359 36.5863 32.4512 36.221 32.2686C36.1086 32.207 36.0558 32.4078 35.8494 32.4686C35.7188 32.4866 35.5863 32.4873 35.4555 32.4706C35.3391 32.4706 35.0155 32.3538 34.9111 32.3538H29.7776C29.728 32.3538 28.3461 32.6182 28.3673 31.7762C28.3555 31.5999 28.3698 31.4228 28.4097 31.2506C28.5225 30.793 29.1372 31.1022 29.516 30.1474C29.7185 29.6142 29.8443 29.0549 29.8896 28.4863C29.9976 27.5031 30.1368 26.2767 30.1844 25.9504C30.194 25.7244 30.3336 25.3132 30.1744 25.0956C30.0692 25.0131 29.95 24.9503 29.8224 24.9104C29.5884 24.8128 29.4868 24.7948 29.4752 24.5608C29.4687 24.3226 29.503 24.0851 29.5764 23.8584C29.6241 23.75 29.6969 23.6545 29.7888 23.5797C29.8806 23.5049 29.989 23.4531 30.1048 23.4284C30.186 23.4043 30.2684 23.3844 30.3516 23.3688Z" fill="#E5000B"/>
<path d="M38.3436 32.6009L37.3981 32.5913C36.9776 32.6131 36.5587 32.5251 36.1825 32.3361C36.1673 32.3361 36.1353 32.3665 36.1141 32.3865C36.0469 32.4579 35.9627 32.511 35.8693 32.5409L35.8581 32.5433C35.785 32.5528 35.7114 32.5577 35.6377 32.5577C35.574 32.5581 35.5104 32.5541 35.4473 32.5457C35.3455 32.5345 35.245 32.5133 35.1473 32.4825C35.0697 32.4582 34.9903 32.4404 34.9097 32.4293H29.7783L29.7507 32.4329C29.5957 32.4555 29.4393 32.4674 29.2827 32.4685C28.983 32.498 28.6839 32.4075 28.4507 32.2169C28.3948 32.1578 28.3518 32.0877 28.3243 32.0112C28.2967 31.9347 28.2853 31.8533 28.2907 31.7721C28.2837 31.5892 28.2989 31.4062 28.3359 31.2269C28.3915 31.0005 28.5563 30.9301 28.7311 30.8561C28.8994 30.7968 29.0516 30.6991 29.1755 30.5706C29.2994 30.4421 29.3916 30.2865 29.4447 30.1161C29.6426 29.5959 29.7659 29.0502 29.8111 28.4954C29.8111 28.4954 30.1235 25.7987 30.1367 25.7179C30.1927 25.5303 30.186 25.3296 30.1175 25.1463C30.0209 25.0736 29.9127 25.0179 29.7975 24.9815L29.7327 24.9551C29.5395 24.8751 29.4127 24.8243 29.3991 24.5627C29.3917 24.3111 29.4288 24.0602 29.5087 23.8215C29.5613 23.7043 29.6405 23.6009 29.74 23.5196C29.8395 23.4382 29.9565 23.3811 30.0819 23.3527C30.1675 23.3279 30.2544 23.3078 30.3423 23.2923C30.5003 23.2709 30.6593 23.2576 30.8187 23.2523C31.2851 23.2341 31.7518 23.2242 32.2186 23.2227C32.6362 23.2227 33.0478 23.2323 33.4766 23.2523C34.2638 23.2903 34.6129 23.5759 34.6077 24.1779C34.6025 24.7955 34.2714 24.8411 33.9794 24.8815C33.7534 24.9127 33.5394 24.9423 33.4194 25.2111C33.3004 25.7472 33.2218 26.2915 33.1842 26.8394C33.1742 27.0078 33.1262 27.455 33.0706 27.9726C32.9962 28.663 32.9106 29.445 32.8958 29.783C32.8961 29.8427 32.8931 29.9024 32.8866 29.9618C32.8763 30.0662 32.8763 30.1713 32.8866 30.2757C32.9138 30.5201 33.1642 30.6493 33.7226 30.7029C33.8062 30.7109 33.887 30.7149 33.9626 30.7149C34.7145 30.7149 34.9381 30.3225 35.1749 29.907C35.4001 29.5118 35.6325 29.103 36.3273 29.103C36.4267 29.0972 36.5261 29.1138 36.6183 29.1515C36.7104 29.1892 36.7929 29.2471 36.8597 29.321C37.0706 29.682 37.1366 30.1095 37.0445 30.5173L39.5728 26.3175C39.8512 25.8444 40.0435 25.3257 40.1408 24.7855C40.3408 23.9259 40.5136 23.1855 41.8607 23.1855C43.6555 23.1855 44.0707 24.9759 44.5103 26.871L45.1798 29.6634C45.425 30.8577 45.7502 30.9673 45.9878 31.0473C46.209 31.1217 46.355 31.2037 46.3714 31.6449C46.393 32.2205 45.895 32.5317 44.8915 32.5709C44.5943 32.5821 44.2695 32.5877 43.9263 32.5877C43.4843 32.5877 43.0131 32.5781 42.6343 32.5613C41.8195 32.5269 41.3708 32.2689 41.3708 31.8345C41.3727 31.6706 41.4265 31.5115 41.5245 31.3801C41.6224 31.2487 41.7594 31.1517 41.9159 31.1029C42.1587 30.9789 42.2727 30.9089 42.1999 30.6785C42.1599 30.5545 42.0575 30.4105 41.6039 30.3985C41.2876 30.3913 40.174 30.3985 40.1416 30.3985C39.5848 30.3985 39.316 30.5321 39.2952 30.8189C39.2868 30.9333 39.354 30.9645 39.5484 31.0245C39.7159 31.0456 39.8688 31.1304 39.9755 31.2612C40.0822 31.3921 40.1343 31.559 40.1212 31.7273C40.1212 32.4529 38.7212 32.6009 38.3436 32.6009ZM36.1781 32.1777C36.2061 32.1778 36.2337 32.1851 36.2581 32.1989C36.6121 32.3755 37.0059 32.457 37.4009 32.4353L38.3444 32.4453C38.76 32.4453 39.966 32.2685 39.966 31.7253C39.966 31.3137 39.7308 31.2413 39.5032 31.1713C39.3248 31.1165 39.1224 31.0541 39.1404 30.8057C39.1804 30.2409 39.9048 30.2409 40.1424 30.2409H40.2896C40.492 30.2409 40.6552 30.2409 40.804 30.2377C41.0721 30.2339 41.3403 30.235 41.6083 30.2409C42.0335 30.2517 42.2691 30.3753 42.3491 30.6293C42.4647 30.9961 42.2111 31.1257 41.9891 31.2397C41.7671 31.3537 41.5291 31.4741 41.5291 31.8321C41.5291 32.3053 42.3087 32.3889 42.6435 32.4029C43.3915 32.4338 44.1404 32.4372 44.8886 32.4129C45.789 32.3781 46.237 32.1205 46.219 31.6485C46.2054 31.2821 46.1118 31.2485 45.9418 31.1929C45.6686 31.1009 45.2942 30.9745 45.0314 29.6954C44.8219 28.8385 44.6156 27.9807 44.4127 27.1222L44.3619 26.9042C43.9367 25.0711 43.5351 23.3395 41.8643 23.3395C40.6408 23.3395 40.496 23.9607 40.296 24.8195C40.1954 25.3765 39.9966 25.9112 39.7088 26.3987L36.9889 30.9185L36.8449 30.8661C36.9249 30.3421 36.9889 29.7062 36.7461 29.4206C36.6939 29.3638 36.6295 29.3196 36.5578 29.2913C36.4862 29.263 36.409 29.2512 36.3321 29.257C35.7285 29.257 35.5369 29.593 35.3153 29.9822C35.2114 30.2521 35.0256 30.4828 34.7839 30.6419C34.5422 30.8009 34.2568 30.8803 33.9678 30.8689C33.8878 30.8689 33.8014 30.8645 33.713 30.8561C33.2566 30.8121 32.7838 30.7101 32.7366 30.2869C32.7254 30.1728 32.7254 30.0579 32.7366 29.9438C32.7427 29.8884 32.7455 29.8327 32.745 29.777C32.7618 29.4306 32.8462 28.6458 32.9206 27.9534C32.9762 27.4378 33.0242 26.9934 33.0342 26.8258C33.0753 26.2605 33.1582 25.699 33.2822 25.1459C33.3431 25.0178 33.4396 24.9099 33.5602 24.8352C33.6808 24.7606 33.8203 24.7222 33.9622 24.7247C34.2466 24.6847 34.4517 24.6567 34.4557 24.1743C34.4585 23.7999 34.3421 23.4475 33.4734 23.4059C33.0567 23.3864 32.6397 23.3765 32.2226 23.3763C31.7122 23.3763 31.231 23.3915 30.8275 23.4059C30.6737 23.4103 30.5203 23.4226 30.3679 23.4427C30.2893 23.4567 30.2115 23.4746 30.1347 23.4963C29.8043 23.6075 29.7083 23.7475 29.6547 23.8815C29.5836 24.0982 29.5513 24.3256 29.5591 24.5535C29.5667 24.7135 29.6107 24.7311 29.7955 24.8063C29.9488 24.8638 30.095 24.9388 30.2311 25.0299L30.2431 25.0431C30.347 25.2602 30.3656 25.5085 30.2951 25.7387C30.2827 25.8187 29.9707 28.5086 29.9707 28.5086C29.9241 29.0771 29.7973 29.6363 29.5943 30.1694C29.5338 30.3591 29.4304 30.5323 29.292 30.6755C29.1537 30.8188 28.9842 30.9282 28.7967 30.9953C28.6207 31.0701 28.5271 31.1153 28.4911 31.2625C28.4579 31.4301 28.4445 31.601 28.4511 31.7717C28.4463 31.8321 28.4542 31.8928 28.4743 31.95C28.4943 32.0071 28.5261 32.0595 28.5675 32.1037C28.7726 32.2614 29.0302 32.3346 29.2875 32.3085C29.437 32.3074 29.5863 32.296 29.7343 32.2745C29.7607 32.2709 29.7779 32.2693 29.7831 32.2693H34.9145C35.0097 32.2788 35.1035 32.2984 35.1945 32.3277C35.281 32.3548 35.3698 32.3742 35.4597 32.3857H35.4729C35.5298 32.3935 35.5871 32.3971 35.6445 32.3965C35.7094 32.3965 35.7742 32.3925 35.8385 32.3845C35.9053 32.3602 35.9654 32.3203 36.0137 32.2681C36.0561 32.2154 36.1174 32.1814 36.1845 32.1733L36.1781 32.1777ZM41.4831 28.7982C41.4343 28.7982 41.166 28.7898 41.166 28.7898C40.9199 28.8008 40.678 28.7241 40.4832 28.5734C40.451 28.538 40.4269 28.496 40.4125 28.4503C40.398 28.4047 40.3936 28.3565 40.3996 28.309C40.4664 27.7014 40.9364 26.7466 41.3248 26.6031C41.3461 26.5951 41.3687 26.591 41.3916 26.591C41.7915 26.591 42.1143 27.911 42.1143 28.231C42.1198 28.3126 42.1066 28.3944 42.0759 28.4702C42.0451 28.546 41.9975 28.6138 41.9366 28.6684C41.8758 28.7231 41.8033 28.7633 41.7247 28.7858C41.646 28.8083 41.5633 28.8127 41.4827 28.7986L41.4831 28.7982ZM41.4831 28.6422C41.7303 28.6422 41.9587 28.5922 41.9587 28.2306C41.9587 27.8414 41.5987 26.747 41.3916 26.747C41.3872 26.7471 41.3829 26.748 41.3787 26.7494C41.0988 26.853 40.6252 27.6858 40.5544 28.3262C40.5508 28.3518 40.553 28.3779 40.5608 28.4026C40.5685 28.4273 40.5816 28.45 40.5992 28.469C40.7624 28.5895 40.9632 28.6479 41.1656 28.6338C41.1656 28.6338 41.4371 28.6426 41.4831 28.6426V28.6422Z" fill="#E5000B"/>
<path fill-rule="evenodd" clip-rule="evenodd" d="M44.9609 22.8487C44.8637 22.8472 44.7672 22.8654 44.6772 22.9021C44.5872 22.9389 44.5056 22.9935 44.4373 23.0627C44.3661 23.1327 44.3095 23.2161 44.2706 23.3081C44.2317 23.4001 44.2115 23.4988 44.2109 23.5987C44.213 23.7971 44.2926 23.9868 44.4326 24.1273C44.5727 24.2678 44.7621 24.348 44.9605 24.3507C45.1598 24.3497 45.3506 24.2706 45.4921 24.1303C45.5632 24.0614 45.6194 23.9787 45.6573 23.8873C45.6952 23.7959 45.714 23.6977 45.7125 23.5987C45.7128 23.5 45.6936 23.4021 45.6559 23.3109C45.6182 23.2196 45.5628 23.1367 45.4928 23.067C45.4229 22.9972 45.3399 22.942 45.2485 22.9046C45.1571 22.8671 45.0597 22.8481 44.9609 22.8487ZM44.9633 22.9587C45.0482 22.9587 45.1323 22.9756 45.2107 23.0084C45.289 23.0412 45.36 23.0893 45.4196 23.1498C45.4791 23.2104 45.5261 23.2821 45.5576 23.361C45.5891 23.4398 45.6047 23.5242 45.6033 23.6091C45.6037 23.6916 45.5873 23.7734 45.5552 23.8494C45.5231 23.9255 45.4759 23.9942 45.4165 24.0515C45.2929 24.1726 45.1263 24.2397 44.9533 24.2383C44.7856 24.235 44.6257 24.1662 44.5081 24.0466C44.3904 23.927 44.3242 23.7661 44.3237 23.5983C44.3252 23.4264 44.3946 23.262 44.5169 23.1411C44.5751 23.0819 44.6447 23.0351 44.7215 23.0036C44.7983 22.9722 44.8807 22.9566 44.9637 22.9579L44.9633 22.9587ZM44.6557 23.1643V24.0043H44.8365V23.6531H44.9673L45.1337 24.0043H45.3337L45.1469 23.6243C45.2014 23.6157 45.2507 23.587 45.2853 23.544C45.3198 23.5009 45.3371 23.4466 45.3337 23.3915C45.3337 23.2439 45.2137 23.1631 44.9785 23.1631L44.6557 23.1643ZM44.8365 23.2787H44.9465C45.0837 23.2787 45.1501 23.3187 45.1501 23.4135C45.1501 23.5083 45.0877 23.5423 44.9553 23.5423H44.8353V23.2787H44.8365Z" fill="#E5000B"/>
</svg>
