<svg width="56" height="56" viewBox="0 0 56 56" fill="none" xmlns="http://www.w3.org/2000/svg">
<rect width="56" height="56" rx="12.3592" fill="#232342"/>
<g clip-path="url(#clip0_5623_189)">
<path d="M30.8126 30.1432L30.0816 29.3887C29.8098 29.1076 29.8098 28.6577 30.091 28.3811L31.3327 29.6605C32.2278 30.5837 33.6944 30.64 34.6269 29.7636C35.5735 28.8732 35.5922 27.3783 34.6878 26.4457L34.1817 25.9255C33.91 25.6443 33.9099 25.1945 34.1911 24.918L35.194 25.949C36.3934 27.1815 36.3419 29.1638 35.0626 30.3166C33.849 31.446 31.9607 31.3195 30.8126 30.1432Z" fill="white"/>
<path d="M25.4905 31.1001C24.7057 31.086 23.9162 30.7735 23.3264 30.1533C22.184 28.9555 22.1422 27.0569 23.2614 25.8591C24.441 24.5998 26.4101 24.614 27.599 25.8591L28.8761 27.199L28.7925 27.2842C28.5649 27.5115 28.1934 27.5115 27.9612 27.27L27.116 26.3799C26.2476 25.4709 24.8311 25.3857 23.9069 26.2237C22.9224 27.109 22.8806 28.6572 23.7955 29.6135L23.8419 29.6609C24.1345 29.9686 24.4781 30.1722 24.8543 30.2858C25.0494 30.3521 25.1562 30.3379 25.3373 30.5415C25.5045 30.7403 25.4905 31.1001 25.4905 31.1001Z" fill="white"/>
<path d="M26.2445 30.0277C26.7587 29.7604 26.8375 29.6431 27.1108 29.3711L31.2663 25.2529C31.535 25.5343 31.535 25.9846 31.257 26.2614L27.398 30.0699C27.2359 30.2294 27.0691 30.3608 26.8884 30.4827C26.7216 30.5859 26.2723 30.8439 25.9063 30.8485C25.9155 30.8485 25.6978 30.3091 26.2445 30.0277Z" fill="white"/>
<path d="M32.0968 25.2736C32.3909 25.5766 32.8683 25.5766 33.1625 25.2928C33.4566 25.009 33.4614 24.5232 33.1721 24.2297C32.878 23.9267 32.4006 23.9267 32.1065 24.2105C31.8123 24.4943 31.8075 24.9801 32.0968 25.2736Z" fill="#EEA57C"/>
<path d="M8.5 28.0039C8.5 27.6526 8.56121 27.3014 8.68834 26.9548C8.81076 26.6082 8.99439 26.2944 9.23451 26.0133C9.47465 25.737 9.77128 25.5122 10.115 25.3435C10.4634 25.1749 10.8589 25.0859 11.3015 25.0859C11.8242 25.0859 12.2762 25.203 12.6528 25.4419C13.0295 25.6761 13.3073 25.9852 13.491 26.3646L12.9024 26.7393C12.8129 26.552 12.7093 26.3974 12.5822 26.2709C12.4598 26.1445 12.3232 26.0414 12.1773 25.9665C12.0313 25.8916 11.8807 25.8353 11.7253 25.8026C11.5699 25.7698 11.4192 25.751 11.2686 25.751C10.9437 25.751 10.6518 25.8166 10.4022 25.9524C10.1527 26.0883 9.94078 26.2616 9.76657 26.4817C9.59707 26.6972 9.46523 26.9454 9.38048 27.2171C9.29572 27.4887 9.25335 27.7604 9.25335 28.0367C9.25335 28.3459 9.30514 28.6363 9.40873 28.9126C9.51231 29.189 9.65356 29.4372 9.8372 29.6527C10.0208 29.8681 10.2327 30.0367 10.4823 30.1632C10.7318 30.2896 11.0002 30.3505 11.2921 30.3505C11.4475 30.3505 11.6076 30.3318 11.7677 30.2943C11.9325 30.2568 12.0878 30.196 12.2338 30.1069C12.3845 30.0227 12.521 29.9149 12.6528 29.7838C12.7847 29.6527 12.8883 29.498 12.973 29.3201L13.5945 29.6573C13.5004 29.8774 13.3685 30.0695 13.199 30.2381C13.0295 30.4067 12.8412 30.5473 12.6293 30.6644C12.4174 30.7814 12.1914 30.8657 11.956 30.9267C11.7206 30.9875 11.4851 31.0156 11.2591 31.0156C10.8542 31.0156 10.487 30.9267 10.148 30.7534C9.80894 30.5753 9.52173 30.3458 9.27218 30.0648C9.02735 29.7838 8.8343 29.4606 8.70246 29.1C8.56592 28.744 8.5 28.374 8.5 28.0039Z" fill="#EEA57C"/>
<path d="M14.6797 30.8496V24.9199H15.3478V30.8496H14.6797Z" fill="#EEA57C"/>
<path fill-rule="evenodd" clip-rule="evenodd" d="M21.6114 29.3202C21.6114 29.5478 21.5644 29.7566 21.4751 29.9463C21.3857 30.1361 21.2588 30.2974 21.1036 30.4302C20.9484 30.563 20.7649 30.6674 20.5581 30.7386C20.3511 30.8097 20.1301 30.8477 19.8903 30.8477H17.1016V24.918H20.0219C20.2242 24.918 20.4123 24.9607 20.5768 25.0508C20.7415 25.1409 20.8825 25.2548 21.0001 25.3971C21.1176 25.5394 21.207 25.7007 21.2681 25.8809C21.3293 26.0612 21.3622 26.2462 21.3622 26.4265C21.3622 26.7206 21.287 26.9957 21.1412 27.2424C20.9954 27.4938 20.7885 27.6788 20.5157 27.8022C20.8543 27.9018 21.1176 28.0868 21.3152 28.3572C21.5127 28.6371 21.6114 28.9549 21.6114 29.3202ZM17.8445 25.5726V27.5508H19.7161C19.8479 27.5508 19.9701 27.5223 20.0783 27.4701C20.1864 27.4179 20.2852 27.3468 20.3652 27.2567C20.4451 27.1665 20.5062 27.0622 20.5532 26.9436C20.6003 26.825 20.6238 26.6969 20.6238 26.5641C20.6238 26.4265 20.6003 26.2937 20.558 26.1703C20.5156 26.047 20.4545 25.9426 20.3792 25.8525C20.304 25.7624 20.2147 25.696 20.1065 25.6438C19.9984 25.5916 19.8855 25.5679 19.7632 25.5679H17.8445V25.5726ZM20.7837 28.7983C20.8307 28.9264 20.8542 29.0545 20.8542 29.1873C20.8542 29.3201 20.8307 29.4482 20.7837 29.5573C20.7319 29.6807 20.6661 29.7897 20.5768 29.8799C20.4874 29.9748 20.3887 30.0459 20.2711 30.1028C20.1535 30.1598 20.0266 30.1882 19.8902 30.1882H17.8445V28.1532H19.9466C20.0783 28.1532 20.2005 28.1816 20.3087 28.2386C20.4216 28.2955 20.5156 28.3714 20.5956 28.4662C20.6755 28.5611 20.7366 28.675 20.7837 28.7983Z" fill="white"/>
<path d="M40.3779 26.3466C40.3122 26.2719 40.2233 26.1972 40.1156 26.1225C40.0077 26.0524 39.8813 25.9871 39.7456 25.931C39.6097 25.875 39.4598 25.8283 39.296 25.791C39.1321 25.7536 38.9635 25.7396 38.7901 25.7396C38.3359 25.7396 37.9987 25.8236 37.7881 25.9964C37.5772 26.1645 37.4696 26.3979 37.4696 26.6968C37.4696 26.8555 37.4975 26.9862 37.5585 27.089C37.6195 27.1917 37.7131 27.2804 37.8443 27.3551C37.9752 27.4298 38.1346 27.4952 38.3264 27.5465C38.5185 27.6026 38.7481 27.6586 39.0104 27.7193C39.3147 27.7846 39.5862 27.8593 39.8298 27.9434C40.0734 28.0274 40.2842 28.1348 40.4573 28.2609C40.6307 28.3869 40.7619 28.541 40.8508 28.7231C40.9397 28.9052 40.9867 29.1246 40.9867 29.3908C40.9867 29.6709 40.9305 29.9137 40.8225 30.1192C40.7149 30.3246 40.565 30.4927 40.3731 30.6281C40.1858 30.7635 39.961 30.8616 39.7034 30.9222C39.4458 30.983 39.1648 31.0156 38.8605 31.0156C38.4109 31.0156 37.9847 30.9456 37.5772 30.8055C37.1698 30.6655 36.8046 30.46 36.4766 30.1939L36.8325 29.5682C36.9217 29.6616 37.0339 29.755 37.1745 29.8484C37.3149 29.9417 37.4743 30.0258 37.6522 30.1005C37.83 30.1752 38.0222 30.2359 38.2283 30.2826C38.4344 30.3293 38.6497 30.3527 38.8745 30.3527C39.2912 30.3527 39.6145 30.2779 39.8485 30.1285C40.0826 29.9791 40.195 29.7597 40.195 29.4608C40.195 29.2974 40.1575 29.1573 40.0826 29.0453C40.0077 28.9332 39.9 28.8352 39.7549 28.7558C39.6097 28.6718 39.4363 28.6017 39.221 28.5364C39.0104 28.4757 38.7669 28.4103 38.4998 28.3449C38.2048 28.2749 37.9425 28.1955 37.7176 28.1161C37.4928 28.0321 37.3057 27.9341 37.1511 27.822C37.0012 27.7053 36.884 27.5652 36.8091 27.4018C36.7344 27.2384 36.6922 27.0423 36.6922 26.8088C36.6922 26.5287 36.7436 26.2812 36.8468 26.0711C36.9497 25.8563 37.0949 25.6789 37.2822 25.5295C37.4696 25.3801 37.6897 25.2727 37.952 25.198C38.2095 25.1233 38.4906 25.0859 38.7948 25.0859C39.1883 25.0859 39.5488 25.1466 39.8673 25.268C40.1858 25.3894 40.4668 25.5482 40.7149 25.7536L40.3779 26.3466Z" fill="white"/>
<path d="M46.4954 25.8378H44.4506V31.0986H43.7009V25.8378H41.6562V25.1689H46.5002V25.8378H46.4954Z" fill="white"/>
</g>
<defs>
<clipPath id="clip0_5623_189">
<rect width="38" height="7.125" fill="white" transform="translate(8.5 24)"/>
</clipPath>
</defs>
</svg>
