<svg width="56" height="56" viewBox="0 0 56 56" fill="none" xmlns="http://www.w3.org/2000/svg">
<rect width="56" height="56" rx="11.2" fill="#23A994"/>
<path d="M30.3344 24.2866H25.831L25.6713 24.4441V31.2167L25.7351 31.3427L28.3542 33.9258H28.5777L28.6097 33.8313V27.2161H30.3664C31.7595 27.2166 33.1238 27.6078 34.3001 28.344C35.4764 29.0802 36.4162 30.1312 37.0098 31.3742C37.4979 32.4352 37.707 33.6004 37.6177 34.7621C37.5284 35.9239 37.1435 37.0447 36.4987 38.0209C35.913 38.9182 35.1277 39.6721 34.2024 40.2253C33.2771 40.7785 32.2361 41.1165 31.1586 41.2137C30.081 41.3109 28.9952 41.1646 27.9835 40.7861C26.9719 40.4075 26.0609 39.8066 25.3199 39.0289L14.5883 28.4132V28.3502L25.3838 17.6399C26.0307 16.96 26.8101 16.4158 27.6753 16.04C28.5405 15.6641 29.4737 15.4643 30.419 15.4526C31.3644 15.4408 32.3024 15.6173 33.1769 15.9715C34.0514 16.3257 34.8445 16.8503 35.5086 17.5139C36.1852 18.1598 36.7234 18.9332 37.091 19.7882C37.4586 20.6432 37.6482 21.5623 37.6486 22.491L37.7124 22.5225C38.6336 23.0411 39.4819 23.6765 40.2357 24.4126H40.2995L40.4273 24.2866C40.7527 22.5911 40.6167 20.8408 40.0332 19.214C39.4497 17.5872 38.4396 16.1419 37.1056 15.0253C35.3054 13.5031 33.0246 12.6457 30.6538 12.5998H30.5261C29.1698 12.5922 27.8264 12.8595 26.5792 13.3851C25.3321 13.9107 24.2077 14.6834 23.2758 15.6553L10.5 28.2557V28.4762L23.2119 41.045C24.3673 42.2333 25.8044 43.1193 27.3936 43.6233C28.9828 44.1273 30.6741 44.2333 32.3152 43.9319C33.9563 43.6305 35.4956 42.9311 36.7943 41.8967C38.093 40.8624 39.1104 39.5255 39.7547 38.0067C40.399 36.4879 40.65 34.8348 40.4851 33.1965C40.3201 31.5582 39.7445 29.9861 38.8099 28.6219C37.8754 27.2576 36.6114 26.1442 35.1318 25.3819C33.6522 24.6196 32.0036 24.2323 30.3344 24.2551" fill="white"/>
</svg>
