<svg width="56" height="56" viewBox="0 0 56 56" fill="none" xmlns="http://www.w3.org/2000/svg">
<rect width="56" height="56" rx="14" fill="#E1805C"/>
<path d="M17.3733 33.775L24.2561 29.9132L24.3718 29.5778L24.2561 29.3912H23.9207L22.7704 29.3203L18.8377 29.214L15.427 29.0723L12.1226 28.8951L11.2912 28.718L10.5117 27.6905L10.592 27.178L11.2912 26.7079L12.2927 26.7953L14.5058 26.9465L17.8268 27.1756L20.236 27.3173L23.805 27.6882H24.3718L24.4522 27.4591L24.2585 27.3173L24.1073 27.1756L20.6706 24.8467L16.9505 22.3855L15.0019 20.9683L13.9484 20.2503L13.417 19.5771L13.1878 18.108L14.1445 17.0545L15.4294 17.1419L15.7577 17.2293L17.0591 18.2308L19.8392 20.3825L23.4696 23.0563L24.001 23.498L24.2136 23.3468L24.2396 23.2405L24.001 22.8414L22.0264 19.2724L19.9195 15.642L18.9818 14.1375L18.7338 13.2352C18.6464 12.8643 18.5826 12.5526 18.5826 12.1723L19.6715 10.6937L20.2738 10.5L21.7264 10.6937L22.3382 11.2251L23.2405 13.2895L24.7025 16.5396L26.97 20.9589L27.6337 22.2698L27.988 23.4838L28.1203 23.8547H28.3494V23.6421L28.536 21.1526L28.8809 18.0961L29.2163 14.1634L29.332 13.0557L29.88 11.7282L30.9689 11.0102L31.8192 11.4165L32.5183 12.4179L32.4215 13.0651L32.0058 15.7672L31.1909 19.9999L30.6595 22.8343H30.9689L31.3232 22.48L32.7569 20.5762L35.1661 17.5647L36.229 16.3695L37.4691 15.0492L38.265 14.4209H39.7696L40.8774 16.0672L40.3814 17.7678L38.8319 19.733L37.547 21.3982L35.7047 23.8783L34.5544 25.8624L34.6607 26.0206L34.9346 25.9946L39.0965 25.1089L41.3451 24.7026L44.0283 24.242L45.2424 24.8089L45.3746 25.3852L44.8975 26.5639L42.0277 27.2725L38.6619 27.9456L33.6497 29.1313L33.5883 29.1762L33.6592 29.2636L35.9172 29.4762L36.8833 29.5282H39.2476L43.6504 29.8565L44.8007 30.617L45.4904 31.5477L45.3746 32.2562L43.6031 33.1585L41.2128 32.5916L35.6338 31.2642L33.7206 30.7871H33.456V30.9453L35.0504 32.5043L37.9722 35.1426L41.6309 38.5439L41.8175 39.3847L41.3474 40.0484L40.8514 39.9776L37.6368 37.5589L36.3967 36.47L33.5883 34.1057H33.4017V34.3537L34.0489 35.3008L37.4667 40.4382L37.6438 42.0136L37.3958 42.5262L36.5101 42.8356L35.537 42.6584L33.5364 39.85L31.472 36.6873L29.8068 33.8529L29.6036 33.9687L28.6211 44.5527L28.1605 45.0936L27.0976 45.4999L26.2118 44.8267L25.7418 43.7379L26.2118 41.5861L26.7787 38.7777L27.2393 36.5456L27.655 33.7726L27.903 32.8515L27.8865 32.7901L27.6834 32.816L25.593 35.6858L22.4138 39.9823L19.8982 42.675L19.2959 42.9135L18.2519 42.3726L18.3488 41.4066L18.9322 40.5468L22.4138 36.1181L24.5136 33.3735L25.8693 31.7886L25.8599 31.5595H25.7796L16.5324 37.5636L14.8861 37.7762L14.1775 37.1125L14.2649 36.0236L14.6003 35.6693L17.3804 33.7561L17.3709 33.7656L17.3733 33.775Z" fill="white"/>
</svg>
