<svg width="111" height="21" viewBox="0 0 111 21" fill="none" xmlns="http://www.w3.org/2000/svg">
<g clip-path="url(#clip0_5544_1866)">
<path d="M64.6424 17.7977L62.5247 15.6119C61.7373 14.7974 61.7373 13.494 62.5519 12.693L66.1492 16.3994C68.7421 19.0739 72.991 19.2368 75.6926 16.6981C78.4348 14.1185 78.4891 9.78773 75.869 7.08603L74.4028 5.57907C73.6156 4.76449 73.6155 3.46116 74.43 2.66016L77.3354 5.64694C80.81 9.2175 80.661 14.9603 76.9547 18.3001C73.439 21.5719 67.9683 21.2054 64.6424 17.7977Z" fill="#0A0A0A"/>
<path d="M49.2244 20.5682C46.9507 20.5271 44.6635 19.6218 42.9549 17.8251C39.6453 14.3551 39.5242 8.85499 42.7666 5.38494C46.1838 1.73656 51.8882 1.7777 55.3325 5.38494L59.0324 9.26651L58.7901 9.51337C58.1309 10.1717 57.0546 10.1717 56.3819 9.47224L53.9332 6.89367C51.4175 4.26024 47.3139 4.01337 44.6367 6.44104C41.7844 9.0059 41.6634 13.4909 44.3138 16.2615L44.4484 16.3986C45.2959 17.2902 46.2915 17.8799 47.3813 18.2091C47.9464 18.4011 48.2558 18.3601 48.7804 18.9497C49.2648 19.5258 49.2244 20.5682 49.2244 20.5682Z" fill="#0A0A0A"/>
<path d="M51.4059 17.4615C52.8955 16.6871 53.1238 16.3473 53.9156 15.5592L65.9542 3.62891C66.7326 4.44418 66.7326 5.74863 65.9273 6.55033L54.7477 17.5838C54.278 18.0457 53.7948 18.4263 53.2714 18.7795C52.7882 19.0785 51.4865 19.8258 50.4261 19.8394C50.4529 19.8394 49.8222 18.2768 51.4059 17.4615Z" fill="#0A0A0A"/>
<path d="M68.3621 3.68949C69.2143 4.5674 70.5973 4.5674 71.4494 3.74523C72.3014 2.92306 72.3155 1.5156 71.4772 0.665572C70.6251 -0.212339 69.2422 -0.212339 68.3901 0.609831C67.538 1.432 67.5241 2.83944 68.3621 3.68949Z" fill="#EFB99A"/>
<path d="M-0.00390625 11.598C-0.00390625 10.5803 0.173419 9.56269 0.541709 8.55854C0.896354 7.55446 1.42834 6.64534 2.12398 5.83119C2.81965 5.03063 3.679 4.37931 4.67474 3.89082C5.68413 3.40235 6.82993 3.14453 8.11212 3.14453C9.62619 3.14453 10.9357 3.48376 12.0269 4.17577C13.1181 4.85423 13.923 5.74978 14.4549 6.84887L12.7498 7.93441C12.4907 7.39163 12.1906 6.94384 11.8223 6.57749C11.4676 6.21112 11.0721 5.91261 10.6492 5.6955C10.2264 5.4784 9.78987 5.31557 9.33974 5.22059C8.88961 5.1256 8.45316 5.07133 8.01664 5.07133C7.07546 5.07133 6.22975 5.2613 5.5068 5.6548C4.78387 6.04829 4.17005 6.55035 3.66536 7.1881C3.1743 7.81224 2.79238 8.5314 2.54685 9.31844C2.30131 10.1054 2.17856 10.8924 2.17856 11.693C2.17856 12.5885 2.3286 13.4299 2.62869 14.2303C2.92878 15.0311 3.33798 15.7501 3.86996 16.3744C4.40194 16.9986 5.01576 17.4869 5.7387 17.8533C6.46163 18.2197 7.23913 18.3961 8.08483 18.3961C8.53496 18.3961 8.9987 18.3418 9.46252 18.2333C9.93994 18.1246 10.3901 17.9483 10.8129 17.6904C11.2494 17.4462 11.645 17.1342 12.0269 16.7542C12.4089 16.3744 12.7089 15.9264 12.9545 15.4109L14.7549 16.3878C14.4821 17.0255 14.1003 17.5819 13.6092 18.0704C13.1181 18.5589 12.5725 18.966 11.9587 19.3052C11.3449 19.6445 10.6901 19.8886 10.0081 20.0651C9.32613 20.2414 8.64406 20.3229 7.98935 20.3229C6.81628 20.3229 5.75234 20.0651 4.77022 19.5631C3.78811 19.0474 2.95606 18.3825 2.23311 17.5684C1.52382 16.7542 0.964562 15.818 0.582629 14.7732C0.187059 13.7419 -0.00390625 12.67 -0.00390625 11.598Z" fill="#EEA57C"/>
<path d="M17.8984 19.8424V2.66406H19.834V19.8424H17.8984Z" fill="#EEA57C"/>
<path fill-rule="evenodd" clip-rule="evenodd" d="M37.987 15.4133C37.987 16.0729 37.8508 16.6776 37.592 17.2274C37.3331 17.777 36.9653 18.2444 36.5157 18.6291C36.066 19.014 35.5347 19.3163 34.9354 19.5224C34.3359 19.7286 33.6956 19.8385 33.0008 19.8385H24.9219V2.66016H33.3822C33.9681 2.66016 34.513 2.78385 34.9898 3.04495C35.4667 3.30607 35.8754 3.6359 36.216 4.04817C36.5565 4.46045 36.8153 4.9277 36.9924 5.44991C37.1696 5.97213 37.2651 6.5081 37.2651 7.03032C37.2651 7.88236 37.047 8.67941 36.6247 9.39406C36.2023 10.1224 35.6029 10.6584 34.8127 11.0157C35.7936 11.3043 36.5565 11.8403 37.1287 12.6236C37.7009 13.4344 37.987 14.3552 37.987 15.4133ZM27.0741 4.55674V10.2874H32.4963C32.8779 10.2874 33.2321 10.2049 33.5455 10.0538C33.8587 9.90259 34.1449 9.69649 34.3765 9.43534C34.6081 9.17427 34.7851 8.87191 34.9214 8.52835C35.0576 8.18479 35.1258 7.81371 35.1258 7.42895C35.1258 7.03041 35.0576 6.64561 34.9351 6.28831C34.8124 5.931 34.6354 5.62865 34.4173 5.36755C34.1994 5.10645 33.9405 4.91405 33.6272 4.76288C33.3139 4.61171 32.9868 4.543 32.6326 4.543H27.0741V4.55674ZM35.5891 13.9016C35.7253 14.2726 35.7933 14.6436 35.7933 15.0283C35.7933 15.4133 35.7253 15.7843 35.5891 16.1003C35.4391 16.4577 35.2484 16.7737 34.9896 17.0349C34.7307 17.3097 34.4446 17.5158 34.1041 17.6807C33.7634 17.8457 33.3956 17.928 33.0005 17.928H27.0741V12.0325H33.1639C33.5455 12.0325 33.8996 12.115 34.213 12.2799C34.54 12.4448 34.8124 12.6647 35.044 12.9395C35.2756 13.2144 35.4527 13.5442 35.5891 13.9016Z" fill="#0A0A0A"/>
<path d="M92.3569 6.79661C92.1665 6.5802 91.9089 6.36378 91.597 6.14736C91.2843 5.94447 90.9181 5.7551 90.5252 5.59279C90.1315 5.43047 89.6972 5.2952 89.2225 5.18701C88.7477 5.07878 88.2592 5.03821 87.757 5.03821C86.4413 5.03821 85.4642 5.28168 84.8542 5.78215C84.2434 6.2691 83.9315 6.9454 83.9315 7.8111C83.9315 8.27101 84.0125 8.64974 84.1891 8.94728C84.3657 9.24489 84.6371 9.50191 85.017 9.71826C85.3962 9.93469 85.858 10.1241 86.4137 10.2729C86.9703 10.4352 87.6354 10.5975 88.3953 10.7733C89.2768 10.9627 90.0634 11.1791 90.769 11.4226C91.4747 11.6661 92.0855 11.9772 92.587 12.3424C93.0893 12.7076 93.4692 13.1539 93.7268 13.6815C93.9845 14.2089 94.1205 14.8447 94.1205 15.6158C94.1205 16.4273 93.9577 17.1307 93.645 17.7258C93.3331 18.321 92.8989 18.8079 92.3431 19.2003C91.8003 19.5924 91.149 19.8765 90.4028 20.0523C89.6567 20.2283 88.8425 20.3229 87.9611 20.3229C86.6584 20.3229 85.4237 20.12 84.2434 19.7142C83.063 19.3085 82.0049 18.7133 81.0547 17.9423L82.086 16.1297C82.3444 16.4003 82.6693 16.6707 83.0768 16.9414C83.4835 17.2118 83.9452 17.4553 84.4605 17.6718C84.9757 17.8881 85.5323 18.0639 86.1294 18.1992C86.7264 18.3346 87.3502 18.4022 88.0016 18.4022C89.2087 18.4022 90.1452 18.1857 90.8233 17.7529C91.5014 17.32 91.8271 16.6844 91.8271 15.8186C91.8271 15.3451 91.7185 14.9394 91.5014 14.6147C91.2843 14.2902 90.9724 14.0061 90.5519 13.7762C90.1314 13.5327 89.6292 13.3298 89.0054 13.1404C88.3953 12.9646 87.6897 12.7752 86.916 12.5859C86.0613 12.383 85.3014 12.153 84.6501 11.923C83.9987 11.6796 83.4567 11.3955 83.0087 11.0709C82.5745 10.7327 82.2351 10.3269 82.0179 9.85358C81.8016 9.38013 81.6793 8.81204 81.6793 8.1357C81.6793 7.32414 81.8283 6.60725 82.1273 5.99857C82.4254 5.37637 82.8459 4.86237 83.3887 4.42952C83.9315 3.99668 84.569 3.68557 85.3289 3.46916C86.0751 3.25274 86.8893 3.14453 87.7707 3.14453C88.9106 3.14453 89.9549 3.32037 90.8776 3.67205C91.8003 4.02374 92.6145 4.48364 93.3331 5.07878L92.3569 6.79661Z" fill="#0A0A0A"/>
<path d="M110.074 5.32444H104.15V20.565H101.978V5.32444H96.0547V3.38672H110.088V5.32444H110.074Z" fill="#0A0A0A"/>
</g>
<defs>
<clipPath id="clip0_5544_1866">
<rect width="110.086" height="20.6412" fill="white"/>
</clipPath>
</defs>
</svg>
