<svg width="75" height="32" viewBox="0 0 75 32" fill="none" xmlns="http://www.w3.org/2000/svg">
<path fill-rule="evenodd" clip-rule="evenodd" d="M73.7215 4.90972C74.0338 -1.27703 66.5787 0.345611 66.5787 0.345611L66.602 11.0227L63.4051 11.2486L63.398 8.03863L65.4913 7.97422L65.364 5.72847L63.3027 5.77818L63.2462 2.79301L65.9917 2.74055L66.2051 0.346424L60.5896 0.377688L60.6076 8.56704C59.8028 8.72013 58.0934 8.71137 58.0934 8.71137C58.3105 12.1761 56.8925 11.8355 56.8925 11.8355C55.4524 11.5798 55.5203 7.28817 55.5203 7.28817C55.5087 1.98645 56.9497 1.97523 56.9497 1.97523C58.195 1.89702 57.8129 4.44423 57.8129 4.44423L60.1551 4.52073C60.1551 4.52073 60.4328 3.31973 60.2338 2.14845C59.8331 -0.21124 56.9392 0.00493904 56.9333 0.00534508C53.9847 0.2307 53.0618 2.39623 52.7879 4.81779L52.7881 0.66387L50.5133 0.706179L50.7552 9.0552L48.4985 0.412365L45.6645 0.530362L45.5671 11.6535L45.3064 9.09816L44.2543 0.727212L39.9118 0.774151L38.6981 8.4917C37.8756 8.61562 36.213 8.64038 36.213 8.64038C36.2042 11.6195 35.1016 11.5522 35.1016 11.5522C33.6311 11.556 34.0077 7.34526 34.0077 7.34526C34.3893 2.26012 35.6272 2.40223 35.6272 2.40223C36.7891 2.36236 36.2049 4.96916 36.2049 4.96916L38.7742 4.90931C39.1156 3.82354 39.0593 2.90135 39.0593 2.90135C38.7641 0.243531 35.8408 0.254494 35.8347 0.254656C32.2531 0.364777 31.4068 3.30317 31.1665 6.70566L31.0549 0.718279L28.5952 0.689369L28.5597 8.88312L25.7821 0.189446L22.6607 0.369893L22.5577 3.22885C21.108 -0.0886949 15.3873 0.76465 15.3873 0.76465L14.9868 12.7069L13.5222 0.0928884L8.88845 0.284217L7.73466 9.07874C7.47742 8.35404 6.94766 7.73084 6.13279 7.36597C7.53178 6.3321 7.65316 5.15806 7.68851 4.46145C7.95266 -0.737637 0.220982 0.716736 0.220982 0.716736C0.220982 0.716736 0.143631 14.1407 0.143631 14.1415C0.325798 14.4421 2.99452 14.3339 4.10913 14.2111C5.45921 14.0239 6.65256 13.2397 7.33531 12.1467L7.12918 14.0388L9.88881 14.1684L10.1096 11.6813L12.0866 11.6722L12.3709 13.9856L17.7143 14.0519L17.9094 8.91519L19.9455 14.3003L22.7842 14.294L22.5738 13.7509L25.1965 13.6481L25.1172 6.81091L27.3473 13.8591L31.3017 13.9558L31.224 9.78802C31.5302 11.7944 32.4316 13.1502 33.882 13.7115C35.2093 14.1585 36.6279 13.8512 37.5564 12.7561C37.8033 12.4378 38.0016 12.1029 38.1623 11.7591L37.8448 14.248L40.6895 14.0922L41.132 11.0606L42.7045 11.0946L43.1216 13.6005L47.8932 13.5345L47.9178 7.64492L49.7967 14.1266L52.7802 14.1201L52.7874 12.9051L52.7876 9.19025C53.098 11.7671 54.0702 13.124 55.6322 13.5698C56.8888 13.9285 58.2733 13.6787 59.2375 12.7833C60.0223 12.0546 60.4326 10.9734 60.6104 9.91325L60.6192 13.9152L66.576 13.5997L66.5793 14.1986L69.1783 14.0441L69.1698 8.98951L71.6175 14.2034L74.6881 14.3631L71.4477 7.86825C73.5637 7.17756 73.7215 4.90972 73.7215 4.90972ZM4.73978 4.42069C4.74251 4.75317 4.61377 5.93684 3.16712 5.88736L3.15988 3.02082C3.15988 3.02082 4.72693 2.86169 4.73978 4.42069ZM3.15988 11.7767L3.20554 8.04334C3.20554 8.04334 4.81517 8.20861 4.87533 9.96196C4.87533 9.96196 5.10215 11.828 3.15988 11.7767ZM11.7777 9.14407L10.3414 9.19239L11.1883 2.87262L11.7777 9.14407ZM19.9538 5.29899C19.9538 5.29899 19.8106 7.23844 17.9539 6.84046L18.1047 3.15994C18.1047 3.15994 20.1305 3.11705 19.9538 5.29899ZM22.4064 7.03792L22.2045 12.7832L20.5392 8.3783C21.5245 8.22726 22.0863 7.6338 22.4064 7.03792ZM42.5148 8.76149L41.2221 8.72709L41.95 3.87804L42.5148 8.76149ZM71.0741 4.7571C71.0741 4.7571 70.7732 6.61593 69.0943 6.27892L69.0865 2.73025C69.0865 2.73025 71.3494 2.60861 71.0741 4.7571ZM5.45798 16.5176L0.0601685 16.6645L0 30.4498L2.52805 30.3992L2.74051 24.3299L4.64246 24.2489L4.64457 22.0604L2.80319 22.0632L2.91289 19.1431L5.37357 19.2207L5.45798 16.5176ZM5.74187 19.382C5.0755 21.9796 5.17613 24.4502 5.17613 24.4502C5.18498 30.4512 8.04793 30.9459 8.53586 31.0007C11.4086 31.3232 12.4007 28.2768 12.7552 25.502L12.6169 30.1796L14.9138 30.1565L14.8773 21.718L16.7956 30.5869L19.5808 30.5446L19.8211 16.9416L17.6899 16.8081L17.521 23.1971L15.8095 16.0867L13.0302 16.2026L12.8935 20.8251C12.7241 19.3319 12.255 17.9565 11.1885 17.2007C10.5511 16.7557 9.7669 16.603 9.01568 16.5844C7.20851 16.5884 6.12341 17.8933 5.74187 19.382ZM7.62537 23.8805C7.62537 23.8805 7.57767 18.7915 9.10263 18.6725C9.10263 18.6725 10.4454 18.5181 10.1573 23.9916C10.1573 23.9916 10.0488 28.7742 8.78501 28.7258C8.78501 28.7258 7.46886 28.7332 7.62537 23.8805ZM22.6893 17.2537L20.252 17.3696L20.501 30.0944L23.0019 30.0713C24.7502 30.0055 25.9544 29.1712 26.9519 27.317C27.226 26.7333 27.4317 26.2326 27.5743 25.6841L27.5835 29.9386L33.2739 29.8353L33.2648 30.3327L35.8849 30.3722L35.8253 23.732L38.0033 30.5934L41.653 30.5855L41.4476 16.9816L38.8783 16.9082L38.8801 25.56L36.4172 16.4311L33.5389 16.3739L33.3256 27.0911L30.2431 27.358L30.191 24.1057L32.088 24.0112L31.9937 21.6946L30.1856 21.6665L30.1983 18.9102L33.033 18.8343L32.8845 16.3754L27.5546 16.6319L27.5657 21.7223C26.8978 19.0933 24.9826 17.2093 22.6893 17.2537ZM22.8373 19.825C24.2169 19.7316 25.1475 21.3358 25.1349 23.8504C25.1586 26.2569 24.4921 27.7202 23.1161 27.7208L22.8373 19.825Z" fill="#4167B6"/>
</svg>
