<svg width="71" height="36" viewBox="0 0 71 36" fill="none" xmlns="http://www.w3.org/2000/svg">
<rect width="70.5928" height="35.4697" fill="#99CA4D"/>
<path d="M21.0196 11.0081L17.6438 13.5234C16.0552 12.1499 13.995 11.8851 12.8615 11.8851C11.7196 11.8851 10.5199 12.2161 10.3379 13.0352C10.1559 13.8295 10.9005 14.4501 12.1747 14.7976C13.6309 15.1865 14.9465 15.534 16.9902 16.1131C20.0185 16.9819 22.0952 18.2892 22.0952 21.3258C22.0952 25.5207 18.3719 27.6885 13.391 27.6885C8.41004 27.6885 5.0177 25.0987 4 23.8907L7.56609 21.2265C10.0731 23.4108 11.8107 23.7169 13.2669 23.7169C14.9382 23.7169 16.502 23.3612 16.7006 22.4179C16.8661 21.6567 16.2372 21.0527 14.8141 20.7218C13.209 20.3494 11.8438 20.0516 10.3296 19.6544C6.21743 18.5788 5.05907 16.1876 5.05907 14.0364C5.05907 11.0825 7.80604 8.04599 12.8449 8.04599C17.9996 8.04599 21.0196 10.9998 21.0196 11.0081ZM42.5238 8.34385H27.4816V27.1341H42.7968V22.7985H32.7604V19.7703H39.6692V15.625H32.7604V12.6298H42.5155V8.34385H42.5238ZM23.5928 31.4697H24.7595V4H23.5928V31.4697ZM44.7743 31.4697H45.9409V4H44.7743V31.4697ZM48.6631 27.1341H60.7431C63.97 27.1341 66.5928 25.1897 66.5928 22.0704C66.5928 19.6379 65.0042 18.0244 62.7702 17.3129C62.6958 17.2963 62.6296 17.288 62.5551 17.288C62.6296 17.2798 62.704 17.2715 62.7702 17.2467C64.0527 16.742 65.4593 15.3933 65.4593 13.1014C65.4593 10.189 62.8861 8.33558 59.7089 8.33558H48.6548L48.6631 27.1341ZM53.9667 12.2492H58.1864C59.1545 12.2492 59.9405 13.0187 59.9405 13.8957C59.9405 14.7728 59.1545 15.5505 58.1864 15.5505H53.9667V12.2492ZM59.1214 22.964H53.9584V19.5386H59.1214C60.0315 19.5386 60.7762 20.275 60.7762 21.2513C60.7762 22.2194 60.0398 22.964 59.1214 22.964Z" fill="white"/>
</svg>
