<svg width="1884" height="471" viewBox="0 0 1884 471" fill="none" xmlns="http://www.w3.org/2000/svg">
<path d="M167.99 375.329C135.536 375.329 106.571 367.762 81.0946 352.628C55.7027 337.41 35.8179 315.633 21.4404 287.299C7.14694 258.964 0.000214174 225.753 0.000214174 187.665C0.000214174 149.577 7.14694 116.366 21.4404 88.0309C35.7339 59.6962 55.5765 37.9617 80.9685 22.8275C106.36 7.60915 135.368 -1.45553e-05 167.99 -1.45553e-05C193.298 -1.45553e-05 216.63 4.54026 237.986 13.6208C259.427 22.6173 277.63 36.5324 292.596 55.3661C307.646 74.1158 317.946 97.5318 323.495 125.614H273.804C268.927 106.612 261.234 91.0998 250.724 79.0765C240.298 66.969 228.023 58.1828 213.898 52.7176C199.856 47.1684 184.554 44.3938 167.99 44.3938C144.616 44.3938 124.143 50.1112 106.571 61.546C89.0821 72.8966 75.5033 89.3341 65.8342 110.858C56.2492 132.383 51.4567 157.985 51.4567 187.665C51.4567 217.345 56.2492 242.947 65.8342 264.471C75.5033 285.995 89.0821 302.475 106.571 313.91C124.143 325.26 144.616 330.936 167.99 330.936C185.311 330.936 201.664 327.446 217.051 320.468C232.437 313.489 245.427 302.853 256.021 288.56C266.699 274.182 273.426 256.526 276.2 235.59H325.891C322.78 265.69 313.616 291.25 298.397 312.27C283.263 333.29 264.261 349.055 241.392 359.565C218.606 370.074 194.139 375.329 167.99 375.329ZM459.593 373.312C434.621 373.312 412.424 367.72 393.002 356.538C373.664 345.355 358.572 329.506 347.725 308.991C336.879 288.392 331.456 264.429 331.456 237.103C331.456 209.778 336.879 185.857 347.725 165.342C358.572 144.742 373.664 128.851 393.002 117.669C412.424 106.486 434.621 100.895 459.593 100.895C484.396 100.895 506.425 106.486 525.679 117.669C545.017 128.851 560.109 144.742 570.956 165.342C581.802 185.857 587.225 209.778 587.225 237.103C587.225 264.429 581.802 288.392 570.956 308.991C560.109 329.506 545.017 345.355 525.679 356.538C506.425 367.72 484.396 373.312 459.593 373.312ZM459.593 332.954C475.568 332.954 489.483 329.212 501.338 321.729C513.277 314.162 522.484 303.189 528.958 288.812C535.516 274.35 538.795 257.114 538.795 237.103C538.795 217.092 535.516 199.898 528.958 185.521C522.484 171.059 513.277 160.087 501.338 152.604C489.483 145.037 475.568 141.253 459.593 141.253C443.45 141.253 429.366 145.037 417.343 152.604C405.404 160.087 396.155 171.017 389.597 185.395C383.123 199.772 379.886 217.008 379.886 237.103C379.886 257.198 383.123 274.434 389.597 288.812C396.155 303.189 405.404 314.162 417.343 321.729C429.366 329.212 443.45 332.954 459.593 332.954ZM608.031 367.258V106.949H652.424V172.026H654.442V367.258H608.031ZM769.463 197.25C769.463 184.638 767.445 174.296 763.409 166.225C759.373 158.069 753.488 152.057 745.752 148.19C738.017 144.238 728.6 142.262 717.502 142.262C706.739 142.262 696.566 145.205 686.981 151.09C677.396 156.892 669.577 166.014 663.523 178.458C657.469 190.818 654.442 206.33 654.442 224.996H622.66V171.017H640.821C645.362 157.144 651.542 144.995 659.361 134.569C667.18 124.059 676.765 115.819 688.116 109.849C699.467 103.88 712.457 100.895 727.087 100.895C746.089 100.895 762.274 104.931 775.642 113.002C789.011 121.074 799.058 132.004 805.785 145.793C812.511 159.498 815.874 174.801 815.874 191.701V367.258H769.463V197.25ZM930.895 197.25C930.895 184.638 928.877 174.254 924.841 166.098C920.889 157.943 915.046 151.931 907.31 148.063C899.659 144.196 890.2 142.262 878.934 142.262C867.835 142.262 857.493 145.205 847.908 151.09C838.407 156.892 830.672 166.014 824.703 178.458C818.817 190.818 815.874 206.33 815.874 224.996H784.092V178.08L795.695 177.575C800.236 162.945 806.71 149.871 815.118 138.352C823.61 126.833 834.035 117.711 846.395 110.985C858.755 104.258 872.628 100.895 888.014 100.895C907.268 100.895 923.58 104.805 936.948 112.624C950.401 120.359 960.49 131.079 967.217 144.784C973.943 158.405 977.306 174.044 977.306 191.701V367.258H930.895V197.25ZM1138.06 373.312C1116.2 373.312 1097.32 367.72 1081.43 356.538C1065.63 345.271 1053.52 329.422 1045.11 308.991C1036.79 288.476 1032.63 264.513 1032.63 237.103V236.094C1032.63 208.937 1036.83 185.184 1045.24 164.837C1053.64 144.406 1065.75 128.641 1081.56 117.543C1097.45 106.444 1116.28 100.895 1138.06 100.895C1161.1 100.895 1181.24 106.486 1198.47 117.669C1215.79 128.767 1229.12 144.574 1238.45 165.089C1247.87 185.605 1252.58 209.609 1252.58 237.103C1252.58 264.597 1247.87 288.602 1238.45 309.117C1229.12 329.632 1215.79 345.481 1198.47 356.664C1181.24 367.762 1161.1 373.312 1138.06 373.312ZM1010.43 470.171V106.949H1054.82V166.477H1051.29V306.721H1056.84V470.171H1010.43ZM1129.99 332.954C1144.87 332.954 1157.9 329.044 1169.09 321.224C1180.27 313.321 1188.89 302.012 1194.94 287.299C1201.08 272.585 1204.15 255.18 1204.15 235.085C1204.15 215.075 1201.12 198.048 1195.07 184.007C1189.01 169.966 1180.39 159.33 1169.21 152.099C1158.11 144.868 1145.04 141.253 1129.99 141.253C1114.85 141.253 1101.65 145.037 1090.39 152.604C1079.2 160.171 1070.54 171.185 1064.41 185.647C1058.35 200.024 1055.33 217.176 1055.33 237.103C1055.33 257.03 1058.35 274.224 1064.41 288.686C1070.54 303.063 1079.2 314.036 1090.39 321.603C1101.65 329.17 1114.85 332.954 1129.99 332.954ZM1273.41 367.258V106.949H1319.82V367.258H1273.41ZM1273.41 77.6892V25.2237H1319.82V77.6892H1273.41ZM1353.12 367.258V8.0716H1399.53V367.258H1353.12ZM1543.81 373.312C1519.68 373.312 1498.24 367.804 1479.49 356.79C1460.83 345.692 1446.28 329.885 1435.85 309.369C1425.43 288.77 1420.22 264.681 1420.22 237.103C1420.22 210.114 1425.3 186.319 1435.48 165.72C1445.65 145.121 1459.99 129.188 1478.48 117.921C1497.06 106.57 1518.5 100.895 1542.8 100.895C1568.11 100.895 1589.93 106.907 1608.26 118.93C1626.59 130.953 1640.5 147.349 1650 168.116C1659.59 188.884 1664.38 212.216 1664.38 238.112C1664.38 240.466 1664.38 242.863 1664.38 245.301C1664.38 247.739 1664.38 250.22 1664.38 252.742H1441.91V214.402H1637.14L1616.46 226.005C1616.29 209.862 1613.35 195.4 1607.63 182.62C1601.91 169.84 1593.5 159.75 1582.4 152.351C1571.31 144.952 1557.94 141.253 1542.3 141.253C1527.58 141.253 1514.59 144.658 1503.33 151.469C1492.15 158.279 1483.36 168.579 1476.97 182.368C1470.58 196.157 1467.3 213.225 1467.13 233.572V238.112C1467.13 259.468 1470.28 277.209 1476.59 291.334C1482.9 305.46 1491.81 315.927 1503.33 322.738C1514.85 329.548 1528.51 332.954 1544.32 332.954C1555.84 332.954 1566.05 331.104 1574.96 327.404C1583.96 323.705 1591.44 318.492 1597.41 311.766C1603.47 304.955 1607.96 296.884 1610.91 287.551H1657.95C1653.66 304.451 1646.43 319.375 1636.26 332.323C1626.08 345.187 1613.14 355.234 1597.41 362.465C1581.77 369.696 1563.91 373.312 1543.81 373.312ZM1684.97 367.258V106.949H1731.38V367.258H1684.97ZM1684.97 77.6892V25.2237H1731.38V77.6892H1684.97ZM1853.47 368.267C1838.16 368.267 1825.38 366.417 1815.13 362.718C1804.95 358.934 1797.17 352.838 1791.79 344.43C1786.5 336.022 1783.85 324.966 1783.85 311.261V161.936V125.614V88.7876V27.2416H1830.26V88.7876V125.614V161.936V306.721C1830.26 311.766 1831.18 315.927 1833.03 319.207C1834.88 322.402 1837.95 324.84 1842.24 326.521C1846.61 328.119 1852.54 328.918 1860.02 328.918C1863.13 328.918 1866.33 328.918 1869.61 328.918C1872.89 328.918 1876.21 328.918 1879.57 328.918H1883.23V367.258C1882.72 367.258 1882.18 367.258 1881.59 367.258C1881.09 367.342 1880.58 367.384 1880.08 367.384C1875.37 367.636 1870.66 367.846 1865.95 368.015C1861.24 368.183 1857.08 368.267 1853.47 368.267ZM1742.48 145.793V106.949H1807.05H1883.23V145.793H1807.05H1742.48Z" fill="white"/>
</svg>
