<svg width="63" height="26" viewBox="0 0 63 26" fill="none" xmlns="http://www.w3.org/2000/svg">
<path fill-rule="evenodd" clip-rule="evenodd" d="M5.51772 0.121515H57.1212C58.5263 0.103808 59.8809 0.644931 60.8871 1.62587C61.8932 2.60681 62.4686 3.94723 62.4866 5.35233V19.6798C62.4686 21.085 61.8933 22.4255 60.8871 23.4065C59.8809 24.3875 58.5263 24.9288 57.1212 24.9113H5.51772C4.11256 24.9288 2.75796 24.3875 1.7518 23.4065C0.745648 22.4255 0.170323 21.085 0.152344 19.6798V5.35233C0.170322 3.94723 0.745668 2.60681 1.75184 1.62587C2.75801 0.644931 4.11262 0.103808 5.51772 0.121515ZM5.51772 1.51653H57.1212C58.1515 1.50366 59.1448 1.90051 59.8827 2.61981C60.6205 3.33911 61.0425 4.32198 61.0559 5.35233V19.6798C61.0427 20.7103 60.6208 21.6933 59.8829 22.4127C59.145 23.1322 58.1517 23.5291 57.1212 23.5162H5.51772C4.48725 23.5291 3.49386 23.1322 2.756 22.4127C2.01814 21.6933 1.59622 20.7103 1.58303 19.6798V5.35233C1.59639 4.32198 2.01838 3.33911 2.75622 2.61981C3.49406 1.90051 4.48736 1.50366 5.51772 1.51653Z" fill="#E5000B"/>
<path d="M57.0888 25.0342H5.48538C4.04817 25.0501 2.66329 24.4955 1.63431 23.4919C0.605335 22.4884 0.0162171 21.1179 -0.00390625 19.6807V5.35322C0.0162161 3.91589 0.605527 2.54521 1.63479 1.54176C2.66406 0.538301 4.04926 -0.0160123 5.48664 0.000367369H57.0888C58.5264 -0.0163462 59.912 0.537826 60.9415 1.54132C61.971 2.54481 62.5605 3.91567 62.5806 5.35322V19.6807C62.5605 21.1181 61.9712 22.4888 60.942 23.4924C59.9127 24.4959 58.5275 25.0504 57.0901 25.0342H57.0888ZM5.48538 0.244447C4.11374 0.22907 2.79198 0.758233 1.80989 1.71591C0.827812 2.67359 0.265566 3.98163 0.246432 5.35322V19.6807C0.265565 21.0526 0.827964 22.3609 1.8103 23.3187C2.79263 24.2765 4.11472 24.8057 5.48664 24.7901H57.0888C58.4608 24.8057 59.7828 24.2765 60.7652 23.3187C61.7475 22.3609 62.3099 21.0526 62.329 19.6807V5.35322C62.3099 3.98141 61.7475 2.67318 60.7651 1.71546C59.7828 0.757749 58.4607 0.228736 57.0888 0.244447H5.48538ZM57.0888 23.6392H5.48538C4.4225 23.6512 3.39822 23.2413 2.63716 22.4992C1.8761 21.7571 1.44037 20.7436 1.42552 19.6807V5.35322C1.44037 4.29043 1.87612 3.27692 2.6372 2.53496C3.39828 1.793 4.42256 1.38318 5.48538 1.39538H57.0888C58.1517 1.38318 59.1759 1.793 59.937 2.53496C60.6981 3.27692 61.1339 4.29043 61.1487 5.35322V19.6807C61.1339 20.7436 60.6981 21.7571 59.9371 22.4992C59.176 23.2413 58.1517 23.6512 57.0888 23.6392ZM5.48538 1.64196C4.48812 1.63059 3.52706 2.01517 2.81292 2.71135C2.09879 3.40753 1.68988 4.3585 1.67586 5.35572V19.6832C1.68972 20.6805 2.09855 21.6317 2.81271 22.328C3.52686 23.0243 4.48802 23.409 5.48538 23.3976H57.0888C58.0862 23.409 59.0474 23.0243 59.7615 22.328C60.4757 21.6317 60.8845 20.6805 60.8984 19.6832V5.35322C60.8843 4.35599 60.4754 3.40503 59.7613 2.70885C59.0472 2.01266 58.0861 1.62809 57.0888 1.63946L5.48538 1.64196Z" fill="#E5000B"/>
<path fill-rule="evenodd" clip-rule="evenodd" d="M32.0867 5.41832C32.3639 5.5236 32.6053 5.70576 32.7826 5.94341C32.8494 6.12041 32.8804 6.3089 32.8739 6.49797C32.8673 6.68704 32.8233 6.87293 32.7444 7.04489C32.6869 7.1836 32.5914 7.30331 32.469 7.3903C32.3466 7.4773 32.2022 7.52807 32.0523 7.53681C31.9031 7.55087 31.7586 7.59627 31.6282 7.67004C31.4978 7.74381 31.3845 7.84428 31.2956 7.96489C31.0409 8.36793 30.9132 11.0822 30.8863 11.2931L30.7073 12.6863C30.1441 17.0384 28.5895 19.1907 24.8832 19.4379C24.1252 19.4838 23.365 19.4838 22.607 19.4379C20.7701 19.3753 17.6922 18.2644 17.7185 16.2029L17.7323 15.1171L18.4245 9.15024C18.5023 8.76464 18.5023 8.36739 18.4245 7.98179C18.3738 7.76149 18.1554 7.72269 17.9319 7.67575C17.6735 7.62193 17.4094 7.55746 17.3918 7.19197C17.3817 6.8193 17.4353 6.44764 17.5502 6.09298C17.6389 5.90696 17.7713 5.74515 17.936 5.62136C18.1008 5.49756 18.2931 5.41544 18.4964 5.38202C19.1324 5.2235 19.7856 5.14487 20.441 5.14796C21.1803 5.12006 21.9207 5.13071 22.6589 5.17988C23.5714 5.2168 25.2875 5.31068 25.2875 6.47913C25.2875 8.20021 23.4657 6.476 23.1966 10.2486C23.0714 12.0229 22.7616 13.8616 22.7585 14.0137C22.7585 14.0137 22.7391 14.468 22.7466 14.8423C22.7466 14.8824 22.7547 15.0764 22.7622 15.1346C22.8405 15.5018 23.0181 15.8406 23.2757 16.1138C23.5333 16.3871 23.8609 16.5844 24.2229 16.6842C24.293 16.6973 24.4783 16.7211 24.5459 16.7267C24.7148 16.7383 24.8843 16.7396 25.0534 16.7305C25.1254 16.7261 25.4045 16.6892 25.4427 16.6829C26.7301 16.4532 27.8998 14.1883 28.0612 10.9351C28.1401 9.28667 28.3116 8.23087 28.0919 7.95175C27.6613 7.59814 26.5235 7.4955 26.5235 6.29075C26.5235 5.31756 27.8046 5.17988 28.6739 5.17988H30.7649C31.213 5.20984 31.6564 5.28981 32.0867 5.41832Z" fill="#E5000B"/>
<path d="M23.9395 19.5958C23.6409 19.5958 23.3618 19.5858 23.0088 19.5733L22.6365 19.5601C20.9317 19.5032 17.6015 18.4292 17.6297 16.2012L17.6447 15.1029L18.3369 9.13604C18.3457 8.96143 18.3626 8.82876 18.3757 8.72174C18.4163 8.48432 18.4037 8.24084 18.3388 8.00889C18.3106 7.88372 18.2017 7.84992 17.9633 7.79923L17.9432 7.79548C17.6985 7.74416 17.3287 7.66655 17.3061 7.19779C17.2946 6.80435 17.3526 6.41197 17.4776 6.03874C17.5753 5.83851 17.7188 5.66412 17.8965 5.52972C18.0741 5.39532 18.281 5.30469 18.5002 5.26519C19.1464 5.10371 19.8101 5.02319 20.476 5.02549C20.7845 5.01705 21.0931 5.01246 21.4017 5.01172C21.8191 5.01172 22.0494 5.02487 22.2935 5.03801C22.4187 5.04489 22.5438 5.05177 22.7015 5.0574C23.5239 5.08995 25.4484 5.16755 25.4484 6.4787C25.4809 6.72287 25.4223 6.97047 25.2837 7.17414C25.1452 7.37781 24.9364 7.52327 24.6974 7.58269C24.1692 7.8105 23.512 8.09338 23.3574 10.2569C23.2673 11.5161 23.0858 12.8116 22.9882 13.5076C22.9531 13.7579 22.9256 13.9763 22.9218 14.0139C22.9218 14.0233 22.9024 14.4739 22.91 14.84C22.91 14.8851 22.9181 15.0697 22.9243 15.1191C23.0006 15.4602 23.1674 15.7744 23.4072 16.0287C23.6469 16.283 23.9508 16.468 24.2868 16.5642C24.3494 16.5761 24.5315 16.5993 24.5997 16.6055C24.7629 16.6165 24.9265 16.6175 25.0898 16.6086C25.1555 16.6049 25.429 16.5692 25.4653 16.5623C26.5868 16.3627 27.8128 14.3631 27.9831 10.9297C28.0056 10.4585 28.0356 10.0373 28.0619 9.66613C28.1556 9.1273 28.1505 8.57594 28.0469 8.03894C27.9168 7.9495 27.7777 7.87378 27.632 7.813C27.2963 7.72171 26.9992 7.52437 26.7849 7.25041C26.5706 6.97645 26.4506 6.64055 26.4429 6.29282C26.4429 5.47484 27.2076 5.05991 28.7153 5.05991H30.8062C31.2645 5.09052 31.7178 5.17303 32.1574 5.30587C32.4696 5.42176 32.7393 5.62948 32.931 5.90167C33.0036 6.09246 33.0379 6.29572 33.0318 6.49978C33.0256 6.70384 32.9793 6.90469 32.8953 7.09078C32.8311 7.24996 32.7235 7.38794 32.5847 7.48905C32.446 7.59016 32.2817 7.65036 32.1105 7.6628C31.9776 7.67381 31.8486 7.71299 31.7321 7.77773C31.6156 7.84248 31.5141 7.93131 31.4346 8.03831C31.2177 8.99231 31.0959 9.96546 31.071 10.9435C31.0572 11.1488 31.0484 11.2727 31.0434 11.319L30.8638 12.7121C30.2674 17.3434 28.5482 19.3286 24.9271 19.5701C24.5572 19.5945 24.2536 19.6058 23.942 19.6058L23.9395 19.5958ZM17.8875 15.1248L17.8738 16.2043C17.8481 18.2646 21.0205 19.2622 22.6446 19.316L23.0201 19.3292C23.3706 19.3417 23.6459 19.3517 23.9413 19.3517C24.2474 19.3517 24.5459 19.3411 24.9102 19.3167C28.3886 19.0845 30.0421 17.1588 30.621 12.6714L30.7987 11.2771C30.8031 11.2401 30.8125 11.0981 30.825 10.9185C30.8292 9.89908 30.964 8.88444 31.2262 7.89937C31.3239 7.76536 31.4485 7.65326 31.592 7.57027C31.7356 7.48728 31.8949 7.43522 32.0598 7.41746C32.1896 7.41294 32.3154 7.37143 32.4224 7.29781C32.5294 7.22419 32.6131 7.12153 32.6638 7.00191C32.737 6.84426 32.7783 6.67364 32.7852 6.49993C32.7921 6.32621 32.7644 6.15287 32.7038 5.98992C32.5385 5.78552 32.3228 5.62765 32.078 5.5318C31.6637 5.40847 31.2373 5.33061 30.8062 5.29961H28.7122C27.366 5.29961 26.6838 5.63256 26.6838 6.28845C26.6838 7.09892 27.2414 7.35238 27.7296 7.5877C27.9043 7.66666 28.0707 7.76268 28.2265 7.87434C28.3905 7.99575 28.3717 8.66854 28.3004 9.68053C28.2734 10.0504 28.244 10.4703 28.2215 10.9385C28.0657 14.0827 26.9222 16.5479 25.5028 16.8008C25.4584 16.8083 25.1761 16.8458 25.0992 16.8502C24.9242 16.8599 24.7489 16.8587 24.5741 16.8465C24.4618 16.8354 24.3499 16.8206 24.2386 16.802C23.8504 16.6988 23.4988 16.4893 23.2232 16.1971C22.9477 15.9048 22.7592 15.5415 22.679 15.1479C22.6705 15.0463 22.665 14.9445 22.6627 14.8425C22.6552 14.467 22.6746 14.0108 22.6746 14.0057C22.6746 13.9601 22.694 13.818 22.7429 13.4719C22.8399 12.7791 23.0207 11.4886 23.1102 10.2375C23.2754 7.92566 24.039 7.59709 24.5972 7.35864C24.7916 7.3176 24.9628 7.20333 25.0753 7.03951C25.1877 6.87568 25.2328 6.67487 25.2012 6.4787C25.2012 5.52992 23.9313 5.35218 22.689 5.30148C22.5294 5.29585 22.4005 5.28834 22.2772 5.28146C22.0369 5.26832 21.8091 5.2558 21.401 5.2558C21.1507 5.2558 20.8509 5.26018 20.4817 5.26957C19.8369 5.26665 19.1942 5.3438 18.5685 5.49926C17.9558 5.6795 17.7818 5.93734 17.6992 6.13886C17.5879 6.47783 17.5373 6.83375 17.5496 7.19029C17.5615 7.44063 17.7004 7.4957 17.9927 7.5564L18.0127 7.56017C18.2355 7.60648 18.5134 7.66468 18.576 7.95382C18.647 8.21374 18.6611 8.48591 18.6173 8.75177C18.5992 8.88619 18.5865 9.02127 18.5791 9.15669L17.8869 15.1248H17.8875Z" fill="#E5000B"/>
<path fill-rule="evenodd" clip-rule="evenodd" d="M16.6507 5.56252C16.8183 5.59442 16.9756 5.66702 17.1086 5.77392C17.2416 5.88082 17.3464 6.01875 17.4136 6.1756C17.4809 6.33246 17.5085 6.50343 17.4942 6.67348C17.4799 6.84354 17.4241 7.00749 17.3316 7.15091C17.2064 7.48761 16.9317 7.51578 16.6432 7.57085C16.4673 7.59363 16.299 7.65658 16.1513 7.75485C15.8806 8.15369 15.7287 8.62116 15.7132 9.10292C15.5555 10.1537 15.5154 11.6119 15.0247 14.5303C14.4277 18.0976 10.8622 19.4538 8.61484 19.4538C8.23597 19.4783 7.85592 19.4783 7.47705 19.4538C5.8317 19.3912 3.41406 18.3479 3.41406 16.3596C3.41638 15.6667 3.69307 15.003 4.18358 14.5137C4.6741 14.0243 5.33849 13.7492 6.03135 13.7486C6.25792 13.7317 6.48573 13.7473 6.70789 13.7949C7.13761 13.8445 7.53479 14.0481 7.82582 14.3682C8.11685 14.6882 8.28199 15.1029 8.29065 15.5354C8.22807 16.2319 7.69672 16.4284 7.87196 16.7595C7.95042 16.8753 8.05966 16.9669 8.18738 17.024C8.31509 17.081 8.4562 17.1013 8.59481 17.0825C9.37086 16.9379 9.82397 15.9947 10.2846 13.1909C10.4429 12.2422 10.6563 9.92904 10.6563 9.58044C10.7382 9.02517 10.7485 8.4617 10.687 7.9038C10.4993 7.74984 9.95728 7.80993 9.71445 7.773C9.57454 7.73869 9.44893 7.66135 9.35529 7.55188C9.26165 7.44241 9.20472 7.30633 9.19249 7.1628C9.1772 6.95817 9.18856 6.75242 9.22629 6.55072C9.24882 5.71146 10.3309 5.25585 12.6603 5.20703L15.0078 5.21267C15.5716 5.22781 16.1278 5.34617 16.6488 5.56189L16.6507 5.56252Z" fill="#E5000B"/>
<path d="M7.96018 19.6001C7.80177 19.6022 7.64337 19.5951 7.48579 19.5788C5.8104 19.5162 3.31641 18.4523 3.31641 16.3632C3.31665 16.004 3.38766 15.6483 3.52537 15.3166C3.66308 14.9848 3.8648 14.6834 4.119 14.4296C4.37321 14.1758 4.67492 13.9746 5.0069 13.8374C5.33889 13.7002 5.69464 13.6298 6.05385 13.6301C6.25954 13.6141 6.46644 13.6257 6.66906 13.6646L6.75105 13.6777C7.21262 13.73 7.63914 13.9493 7.95036 14.2941C8.26157 14.639 8.436 15.0857 8.44083 15.5502C8.40889 15.8434 8.2984 16.1226 8.12102 16.3582C7.99585 16.5459 7.96018 16.6135 8.009 16.7068C8.06898 16.7914 8.14906 16.8598 8.24203 16.9058C8.335 16.9518 8.43793 16.9739 8.54159 16.9703C8.56252 16.9709 8.58347 16.9697 8.60417 16.9665C9.33266 16.8313 9.76449 15.8037 10.1976 13.1751C10.3534 12.2364 10.5675 9.94203 10.5675 9.58467C10.5675 9.47264 10.5837 9.31744 10.6019 9.13719C10.6623 8.75559 10.6665 8.3672 10.6144 7.98438C10.4302 7.92838 10.2377 7.90508 10.0455 7.91554C9.94095 7.91602 9.83646 7.91038 9.73257 7.89864C9.56409 7.85984 9.41245 7.76813 9.29984 7.63693C9.18722 7.50574 9.11955 7.34195 9.10673 7.16953C9.09101 6.95866 9.10237 6.74666 9.14052 6.53868C9.17682 5.61305 10.339 5.13929 12.6941 5.08984L15.0448 5.09548C15.6235 5.11052 16.1945 5.23165 16.7295 5.45284C17.0095 5.53604 17.2586 5.70023 17.4455 5.92472L17.4586 5.94538C17.5532 6.13983 17.6041 6.35256 17.608 6.56874C17.6119 6.78492 17.5686 6.99934 17.4812 7.19707C17.4209 7.34065 17.3199 7.46345 17.1907 7.55031C17.0615 7.63717 16.9096 7.6843 16.7539 7.68586L16.6976 7.6965C16.54 7.71651 16.3889 7.77192 16.2558 7.85858C16.155 7.92993 16.0054 8.20656 15.8627 9.12718C15.8048 9.54481 15.7574 9.96384 15.7207 10.3839C15.5912 11.7808 15.4098 13.1724 15.1768 14.5558C14.5603 18.2432 10.9336 19.5813 8.64673 19.5813C8.65049 19.5813 8.30502 19.602 7.96769 19.602L7.96018 19.6001ZM6.26289 13.8686C6.20844 13.8686 6.14335 13.8686 6.06136 13.8742C5.39991 13.8742 4.76534 14.136 4.29628 14.6023C3.82721 15.0687 3.56179 15.7018 3.55798 16.3632C3.55798 18.2902 5.91241 19.2759 7.50081 19.3353C7.65173 19.3511 7.80345 19.358 7.95517 19.356C8.28499 19.356 8.62358 19.3353 8.62671 19.3353C10.7546 19.3353 14.3363 18.0261 14.924 14.5132C15.2444 12.5975 15.3721 11.3026 15.4647 10.3576C15.5148 9.85066 15.5542 9.45074 15.6086 9.08838C15.7426 8.23472 15.8896 7.80727 16.1006 7.65895C16.2625 7.55066 16.447 7.48086 16.64 7.45492L16.6976 7.44365C16.9842 7.39108 17.1507 7.34977 17.2396 7.11195C17.3159 6.94841 17.3551 6.77003 17.3544 6.58958C17.3538 6.40912 17.3133 6.23103 17.2358 6.06804C17.0756 5.88192 16.8643 5.74681 16.6281 5.67939C16.1189 5.46895 15.5755 5.35357 15.0247 5.33894L12.6834 5.3333C10.5074 5.37836 9.39211 5.7908 9.37146 6.55808L9.36771 6.58436C9.33357 6.77364 9.32347 6.96647 9.33767 7.15827V7.17391C9.35151 7.28714 9.39889 7.39363 9.47372 7.47973C9.54855 7.56582 9.64742 7.62758 9.75761 7.65707C9.85138 7.66667 9.9456 7.67127 10.0399 7.67084C10.2988 7.64399 10.56 7.69382 10.7909 7.81415L10.819 7.83731L10.8297 7.87235C10.9068 8.29842 10.9094 8.73465 10.8372 9.16159C10.8199 9.30185 10.8088 9.4428 10.804 9.58404C10.804 9.9464 10.5881 12.2695 10.4285 13.2139C9.96914 16.0002 9.50039 17.0454 8.6386 17.2056C8.60383 17.2111 8.56865 17.2136 8.53345 17.2131C8.38448 17.2208 8.23618 17.1883 8.10406 17.1191C7.97194 17.0498 7.86086 16.9463 7.78244 16.8194C7.66165 16.5904 7.78682 16.4026 7.90761 16.2211C8.06278 16.0198 8.15975 15.7797 8.18799 15.5271C8.17424 15.1258 8.01709 14.7427 7.74507 14.4474C7.47304 14.1521 7.10416 13.964 6.70536 13.9174L6.62275 13.9043C6.50175 13.8803 6.37873 13.8679 6.25538 13.8673L6.26289 13.8686Z" fill="#E5000B"/>
<path fill-rule="evenodd" clip-rule="evenodd" d="M51.3999 10.446C51.885 10.267 52.4714 12.2822 52.4714 12.878C52.4714 13.7836 51.6409 13.6359 51.2478 13.6334C51.2284 13.6334 51.1609 13.6303 51.1477 13.6334C50.7672 13.6415 49.9749 13.532 50.0312 13.0169C50.1395 12.0356 50.8792 10.6387 51.3999 10.451V10.446ZM34.1892 5.27085C34.4321 5.23882 34.6765 5.21918 34.9214 5.21201C36.272 5.16382 37.4955 5.13942 39.0714 5.21201C40.4583 5.27898 40.7305 5.85602 40.7249 6.53756C40.7124 8.09341 39.3561 7.02571 38.8793 8.10655C38.6934 8.95886 38.568 9.82321 38.5037 10.6932C38.4674 11.3134 38.0963 14.3756 38.0519 15.3038C38.0293 15.5645 38.0243 15.8265 38.0369 16.088C38.0995 16.6418 38.7253 16.8008 39.455 16.8709C42.3427 17.1494 41.3326 14.3675 43.5418 14.3675C44.7034 14.3675 44.6802 15.6417 44.4649 17.0255L48.7251 9.95342C50.2152 7.62403 49.0805 5.10938 52.2004 5.10938C55.0167 5.10938 55.595 8.07213 56.3065 11.1219C56.6245 12.4661 56.9474 13.8092 57.2754 15.1511C57.955 18.4605 59.0772 16.6456 59.136 18.2265C59.1742 19.2353 58.0383 19.5063 56.9368 19.5489C55.7631 19.5876 54.5884 19.5826 53.4151 19.5339C53.1229 19.522 51.5545 19.4556 51.5545 18.5187C51.5545 17.2783 53.1535 17.6463 52.8463 16.6731C52.7543 16.3809 52.5008 16.1687 51.8005 16.1505C51.0219 16.1324 50.6157 16.1505 49.7396 16.1505C49.3553 16.1505 48.1249 16.0736 48.0635 16.9191C48.0141 17.6075 49.3553 17.0718 49.3553 18.3498C49.3553 19.378 47.178 19.6015 46.6792 19.5952L45.2184 19.5802C44.5803 19.6141 43.9444 19.4817 43.3728 19.1959C43.197 19.0995 43.1144 19.4137 42.7914 19.5088C42.587 19.5371 42.3797 19.5381 42.175 19.512C41.9928 19.512 41.4865 19.3292 41.3232 19.3292H33.2911C33.2135 19.3292 31.0512 19.7429 31.0844 18.4255C31.066 18.1496 31.0883 17.8725 31.1507 17.6031C31.3272 16.8872 32.2891 17.3709 32.8818 15.877C33.1985 15.0427 33.3953 14.1676 33.4663 13.2779C33.6353 11.7396 33.8531 9.82074 33.9276 9.31005C33.9426 8.95645 34.161 8.31309 33.9119 7.97263C33.7474 7.84355 33.5608 7.74536 33.3612 7.68285C32.9951 7.53014 32.8361 7.50199 32.8179 7.13587C32.8078 6.7632 32.8613 6.39153 32.9763 6.03688C33.0509 5.86724 33.1648 5.71777 33.3085 5.60079C33.4523 5.48381 33.6218 5.40269 33.803 5.3641C33.93 5.3264 34.0589 5.29528 34.1892 5.27085Z" fill="#E5000B"/>
<path d="M46.689 19.7162L45.2095 19.7011C44.5516 19.7352 43.8962 19.5976 43.3076 19.3018C43.2838 19.3018 43.2337 19.3494 43.2005 19.3807C43.0954 19.4924 42.9636 19.5756 42.8175 19.6223L42.8 19.626C42.6857 19.641 42.5705 19.6485 42.4552 19.6486C42.3555 19.6492 42.256 19.6429 42.1573 19.6298C41.9979 19.6122 41.8407 19.5791 41.6879 19.5309C41.5665 19.4929 41.4421 19.4651 41.3161 19.4477H33.2871L33.244 19.4533C33.0015 19.4886 32.7568 19.5072 32.5117 19.509C32.0428 19.5551 31.5747 19.4136 31.21 19.1153C31.1225 19.0228 31.0552 18.9133 31.0121 18.7935C30.969 18.6738 30.9512 18.5464 30.9596 18.4194C30.9487 18.1332 30.9724 17.8468 31.0304 17.5664C31.1173 17.2121 31.3752 17.102 31.6487 16.9862C31.9121 16.8935 32.1502 16.7405 32.344 16.5395C32.5378 16.3385 32.6821 16.095 32.7652 15.8284C33.0748 15.0143 33.2678 14.1606 33.3385 13.2925C33.3385 13.2925 33.8273 9.07302 33.8479 8.9466C33.9356 8.65317 33.925 8.33914 33.8179 8.05227C33.6668 7.93853 33.4975 7.85134 33.3172 7.79442L33.2158 7.75311C32.9135 7.62794 32.7151 7.54846 32.6938 7.13916C32.6822 6.74551 32.7403 6.3529 32.8653 5.97947C32.9477 5.79604 33.0716 5.6343 33.2273 5.507C33.3829 5.3797 33.566 5.29034 33.7622 5.24598C33.8962 5.20715 34.0322 5.17561 34.1696 5.15147C34.4168 5.11795 34.6656 5.09705 34.915 5.08889C35.6448 5.06036 36.3751 5.04493 37.1054 5.04258C37.7588 5.04258 38.4028 5.05759 39.0737 5.08889C40.3054 5.14834 40.8517 5.5952 40.8436 6.5371C40.8355 7.5034 40.3173 7.57475 39.8604 7.63796C39.5068 7.68678 39.172 7.73309 38.9842 8.15365C38.7981 8.99254 38.675 9.84419 38.6162 10.7015C38.6006 10.965 38.5255 11.6647 38.4385 12.4745C38.3221 13.5547 38.1881 14.7782 38.165 15.3071C38.1655 15.4005 38.1607 15.4939 38.1506 15.5868C38.1345 15.7502 38.1345 15.9147 38.1506 16.0781C38.1932 16.4605 38.5849 16.6627 39.4586 16.7465C39.5894 16.759 39.7158 16.7653 39.8341 16.7653C41.0107 16.7653 41.3606 16.1513 41.7311 15.5011C42.0834 14.8827 42.447 14.2431 43.5341 14.2431C43.6896 14.2341 43.8452 14.26 43.9894 14.319C44.1335 14.3781 44.2626 14.4687 44.3671 14.5842C44.6971 15.149 44.8005 15.8181 44.6563 16.4561L48.6122 9.88475C49.0478 9.14454 49.3487 8.33299 49.5009 7.48776C49.8139 6.14281 50.0842 4.98438 52.1921 4.98438C55.0002 4.98438 55.6499 7.78566 56.3377 10.7509L57.3853 15.1199C57.769 16.9887 58.2778 17.1602 58.6495 17.2854C58.9956 17.4018 59.2241 17.5301 59.2497 18.2204C59.2835 19.121 58.5043 19.6079 56.9341 19.6692C56.4691 19.6867 55.9609 19.6955 55.4239 19.6955C54.7324 19.6955 53.9951 19.6805 53.4024 19.6542C52.1276 19.6004 51.4254 19.1967 51.4254 18.517C51.4285 18.2606 51.5127 18.0117 51.6659 17.8061C51.8192 17.6004 52.0336 17.4486 52.2784 17.3724C52.6583 17.1784 52.8367 17.0688 52.7228 16.7083C52.6602 16.5143 52.5 16.289 51.7903 16.2702C51.2952 16.259 49.5529 16.2702 49.5022 16.2702C48.631 16.2702 48.2104 16.4793 48.1779 16.928C48.1647 17.107 48.2699 17.1558 48.574 17.2497C48.8361 17.2827 49.0754 17.4153 49.2423 17.6201C49.4092 17.8248 49.4908 18.086 49.4703 18.3493C49.4703 19.4846 47.2798 19.7162 46.689 19.7162ZM43.3007 19.054C43.3445 19.0542 43.3876 19.0656 43.4258 19.0872C43.9797 19.3635 44.5959 19.491 45.2139 19.4571L46.6903 19.4727C47.3405 19.4727 49.2274 19.1961 49.2274 18.3462C49.2274 17.7022 48.8594 17.5889 48.5033 17.4794C48.2242 17.3936 47.9075 17.296 47.9357 16.9074C47.9983 16.0237 49.1317 16.0237 49.5034 16.0237H49.7337C50.0504 16.0237 50.3058 16.0237 50.5386 16.0187C50.9581 16.0127 51.3777 16.0143 51.7972 16.0237C52.4624 16.0406 52.8311 16.2339 52.9562 16.6314C53.1371 17.2053 52.7403 17.408 52.393 17.5864C52.0456 17.7648 51.6732 17.9531 51.6732 18.5133C51.6732 19.2537 52.893 19.3845 53.4168 19.4064C54.5872 19.4548 55.759 19.46 56.9297 19.422C58.3385 19.3676 59.0394 18.9645 59.0113 18.226C58.99 17.6527 58.8435 17.6002 58.5776 17.5132C58.1501 17.3692 57.5643 17.1715 57.1531 15.17C56.8252 13.8292 56.5025 12.4872 56.185 11.1439L56.1055 10.8029C55.4402 7.93461 54.8119 5.22532 52.1977 5.22532C50.2832 5.22532 50.0567 6.19727 49.7438 7.54096C49.5864 8.41251 49.2753 9.24914 48.825 10.0118L44.5693 17.0838L44.344 17.0019C44.4691 16.182 44.5693 15.1869 44.1894 14.7401C44.1077 14.6513 44.007 14.5821 43.8949 14.5378C43.7827 14.4935 43.6619 14.4751 43.5416 14.4841C42.5972 14.4841 42.2974 15.0098 41.9507 15.6187C41.7881 16.0412 41.4974 16.4021 41.1192 16.651C40.7411 16.8998 40.2946 17.024 39.8423 17.0062C39.7171 17.0062 39.5819 16.9994 39.4436 16.9862C38.7295 16.9174 37.9898 16.7578 37.9159 16.0956C37.8984 15.9171 37.8984 15.7372 37.9159 15.5587C37.9255 15.472 37.9299 15.3849 37.929 15.2977C37.9553 14.7557 38.0874 13.5278 38.2038 12.4445C38.2908 11.6377 38.3659 10.9424 38.3815 10.6802C38.4459 9.79564 38.5756 8.91706 38.7696 8.05164C38.8649 7.85121 39.0159 7.68247 39.2046 7.5656C39.3932 7.44873 39.6116 7.38868 39.8335 7.39263C40.2785 7.33005 40.5995 7.28623 40.6058 6.53147C40.6102 5.94567 40.428 5.3943 39.0687 5.32921C38.4168 5.29866 37.7643 5.28322 37.1117 5.28291C36.3131 5.28291 35.5602 5.30668 34.9287 5.32921C34.6882 5.3361 34.4482 5.35532 34.2096 5.3868C34.0867 5.40864 33.9649 5.43662 33.8448 5.47065C33.3278 5.64464 33.1776 5.86369 33.0938 6.07335C32.9826 6.41232 32.9319 6.76823 32.9442 7.12477C32.9561 7.3751 33.0249 7.40264 33.3141 7.5203C33.554 7.61026 33.7827 7.72765 33.9956 7.87014L34.0144 7.8908C34.177 8.23055 34.206 8.61899 34.0957 8.97914C34.0763 9.10431 33.5882 13.3131 33.5882 13.3131C33.5152 14.2027 33.317 15.0775 32.9993 15.9116C32.9046 16.2085 32.7428 16.4795 32.5263 16.7037C32.3099 16.9278 32.0447 17.099 31.7513 17.204C31.476 17.321 31.3295 17.3918 31.2732 17.6221C31.2213 17.8843 31.2003 18.1517 31.2106 18.4188C31.2031 18.5133 31.2155 18.6083 31.2468 18.6977C31.2782 18.7872 31.3279 18.8691 31.3927 18.9382C31.7136 19.1849 32.1166 19.2996 32.5192 19.2587C32.7532 19.2569 32.9868 19.2391 33.2183 19.2055C33.2596 19.1998 33.2865 19.1973 33.2947 19.1973H41.3236C41.4725 19.2122 41.6193 19.2428 41.7617 19.2887C41.8971 19.3312 42.0359 19.3615 42.1767 19.3795H42.1973C42.2863 19.3916 42.376 19.3973 42.4658 19.3963C42.5673 19.3964 42.6686 19.3901 42.7693 19.3776C42.8739 19.3396 42.9679 19.2771 43.0435 19.1954C43.1097 19.113 43.2057 19.0598 43.3107 19.0471L43.3007 19.054ZM51.6013 13.7662C51.5249 13.7662 51.105 13.7531 51.105 13.7531C50.72 13.7703 50.3414 13.6503 50.0366 13.4145C49.9863 13.3591 49.9486 13.2934 49.926 13.222C49.9034 13.1506 49.8965 13.0751 49.9058 13.0008C50.0104 12.0502 50.7457 10.5563 51.3534 10.3316C51.3869 10.3191 51.4223 10.3128 51.4579 10.3128C52.0838 10.3128 52.5889 12.3781 52.5889 12.8788C52.5974 13.0065 52.5768 13.1345 52.5287 13.253C52.4805 13.3716 52.406 13.4777 52.3108 13.5632C52.2156 13.6488 52.1022 13.7116 51.9792 13.7469C51.8561 13.7821 51.7267 13.789 51.6006 13.7669L51.6013 13.7662ZM51.6013 13.5222C51.988 13.5222 52.3454 13.4439 52.3454 12.8782C52.3454 12.2692 51.7821 10.5569 51.4579 10.5569C51.4511 10.5571 51.4443 10.5583 51.4379 10.5607C50.9998 10.7228 50.2588 12.0258 50.1481 13.0277C50.1425 13.0679 50.1459 13.1087 50.158 13.1473C50.1702 13.1859 50.1907 13.2214 50.2181 13.2512C50.4735 13.4397 50.7877 13.5311 51.1043 13.509C51.1043 13.509 51.5293 13.5228 51.6013 13.5228V13.5222Z" fill="#E5000B"/>
<path fill-rule="evenodd" clip-rule="evenodd" d="M57.0446 4.45717C56.8925 4.45478 56.7415 4.48321 56.6007 4.54076C56.4599 4.5983 56.3322 4.68376 56.2253 4.79199C56.1139 4.90151 56.0252 5.032 55.9644 5.17592C55.9036 5.31985 55.8719 5.47439 55.8711 5.63063C55.8743 5.94103 55.9988 6.23785 56.218 6.4577C56.4371 6.67754 56.7335 6.80298 57.0439 6.80721C57.3557 6.80574 57.6543 6.6819 57.8757 6.46238C57.9869 6.3546 58.0748 6.22521 58.1341 6.08217C58.1934 5.93912 58.2228 5.78546 58.2205 5.63063C58.221 5.47613 58.1909 5.32305 58.1319 5.18025C58.0729 5.03745 57.9862 4.90775 57.8768 4.79865C57.7674 4.68954 57.6375 4.60319 57.4945 4.54458C57.3516 4.48597 57.1991 4.45626 57.0446 4.45717ZM57.0483 4.62927C57.1812 4.62926 57.3127 4.65569 57.4353 4.70703C57.5579 4.75836 57.669 4.83358 57.7622 4.92829C57.8554 5.02301 57.9288 5.13533 57.9782 5.2587C58.0275 5.38207 58.0518 5.51404 58.0497 5.6469C58.0502 5.77604 58.0246 5.90395 57.9744 6.02292C57.9242 6.14189 57.8504 6.24944 57.7574 6.33908C57.564 6.52854 57.3034 6.63365 57.0327 6.63136C56.7702 6.62629 56.5201 6.51864 56.336 6.33149C56.1519 6.14433 56.0483 5.89254 56.0476 5.63C56.0498 5.36097 56.1585 5.10377 56.3499 4.91466C56.4409 4.82202 56.5498 4.74885 56.67 4.69958C56.7901 4.65031 56.9191 4.62596 57.0489 4.62802L57.0483 4.62927ZM56.567 4.95095V6.26523H56.8499V5.71574H57.0546L57.3149 6.26523H57.6278L57.3356 5.67068C57.4208 5.65715 57.498 5.61235 57.5521 5.54501C57.6061 5.47767 57.6331 5.39262 57.6278 5.30644C57.6278 5.0755 57.4401 4.94908 57.0721 4.94908L56.567 4.95095ZM56.8499 5.12995H57.022C57.2367 5.12995 57.3406 5.19253 57.3406 5.34086C57.3406 5.48918 57.243 5.54238 57.0358 5.54238H56.848V5.12995H56.8499Z" fill="#E5000B"/>
</svg>
