<svg width="131" height="22" viewBox="0 0 131 22" fill="none" xmlns="http://www.w3.org/2000/svg">
<g clip-path="url(#clip0_5544_1857)">
<path d="M72.3985 7.14596V8.15475C71.3476 7.33511 70.0446 6.89376 68.7206 6.91478C67.9336 6.90622 67.1529 7.05562 66.4246 7.35413C65.6964 7.65264 65.0355 8.0942 64.4809 8.65267C63.9264 9.21115 63.4895 9.87519 63.1961 10.6055C62.9027 11.3358 62.7588 12.1176 62.7729 12.9045C62.747 13.6955 62.8827 14.4834 63.1716 15.2202C63.4605 15.957 63.8966 16.6272 64.4532 17.1898C65.0099 17.7523 65.6754 18.1955 66.4091 18.4921C67.1429 18.7888 67.9294 18.9327 68.7206 18.9152C70.0446 18.9362 71.3476 18.4949 72.3985 17.6962V18.684H74.6682V7.14596H72.3985ZM68.7206 16.7295C68.2305 16.7299 67.7453 16.6312 67.2944 16.4393C66.8434 16.2475 66.4358 15.9664 66.0962 15.6131C65.7566 15.2597 65.4919 14.8413 65.3181 14.3831C65.1443 13.9249 65.0649 13.4362 65.0847 12.9465C65.0847 11.985 65.4667 11.0629 66.1466 10.383C66.8264 9.70312 67.7486 9.32116 68.7101 9.32116C69.6716 9.32116 70.5937 9.70312 71.2736 10.383C71.9535 11.0629 72.3354 11.985 72.3354 12.9465C72.3643 13.4366 72.2919 13.9275 72.1227 14.3884C71.9535 14.8492 71.6911 15.2703 71.3519 15.6253C71.0127 15.9803 70.604 16.2615 70.1513 16.4515C69.6985 16.6415 69.2115 16.7361 68.7206 16.7295ZM45.5394 6.9358C46.3228 6.92736 47.1 7.07543 47.8254 7.37134C48.5509 7.66725 49.2099 8.10504 49.7639 8.65902C50.3178 9.213 50.7556 9.87202 51.0515 10.5974C51.3474 11.3229 51.4955 12.1001 51.4871 12.8835C51.4871 14.4609 50.8605 15.9737 49.745 17.0891C48.6296 18.2045 47.1168 18.8311 45.5394 18.8311C43.962 18.8311 42.4492 18.2045 41.3338 17.0891C40.2184 15.9737 39.5918 14.4609 39.5918 12.8835C39.5715 12.0969 39.7116 11.3144 40.0033 10.5837C40.2951 9.85294 40.7324 9.18919 41.2888 8.63282C41.8452 8.07645 42.5089 7.63909 43.2396 7.34735C43.9704 7.0556 44.7528 6.91558 45.5394 6.9358ZM45.5394 16.6874C46.0295 16.6878 46.5146 16.5891 46.9656 16.3973C47.4166 16.2055 47.8242 15.9244 48.1638 15.571C48.5034 15.2177 48.7681 14.7993 48.9419 14.3411C49.1157 13.8828 49.1951 13.3942 49.1753 12.9045C49.2324 12.0322 48.9716 11.1687 48.441 10.4739C47.9104 9.77918 47.146 9.30027 46.2893 9.12586C45.4327 8.95146 44.5419 9.09339 43.7819 9.52538C43.0219 9.95736 42.4442 10.6501 42.1558 11.4754C41.9876 11.9377 41.9106 12.4141 41.9246 12.9045C41.8957 13.3946 41.9681 13.8854 42.1373 14.3463C42.3065 14.8072 42.5689 15.2283 42.9081 15.5833C43.2473 15.9382 43.656 16.2195 44.1087 16.4095C44.5615 16.5994 45.0485 16.6941 45.5394 16.6874Z" fill="#0A0A0A"/>
<path d="M64.0591 18.6643H60.9697L55.2532 13.0319V18.6643H52.9414V1.30469H55.2532V11.5607L60.0449 7.16828H63.3235L57.565 12.3593L64.0591 18.6643ZM89.6571 7.14726H91.99V18.6643H89.6782L89.6571 7.14726ZM100.27 9.22789C99.8147 9.11262 99.3397 9.0942 98.8764 9.17385C98.413 9.25349 97.9715 9.42941 97.5803 9.69026C97.0298 10.0254 96.5741 10.4956 96.2563 11.0563V18.6643H93.9445V7.14726H96.1933V8.4713C96.6042 7.95702 97.1302 7.54645 97.7289 7.27266C98.3275 6.99888 98.9821 6.86954 99.64 6.89507C99.9482 6.89507 100.249 6.91608 100.544 6.95812L100.27 9.22789ZM102.666 13.3892C102.72 14.3406 103.14 15.2345 103.837 15.8844C104.533 16.5344 105.454 16.8903 106.407 16.8779C107.04 16.8807 107.666 16.7403 108.237 16.4674C108.809 16.1944 109.311 15.7959 109.707 15.3017L111.22 16.7518C110.627 17.4492 109.885 18.004 109.048 18.3751C108.211 18.7463 107.301 18.9241 106.386 18.8955C105.601 18.904 104.822 18.7552 104.095 18.458C103.368 18.1608 102.708 17.7211 102.154 17.1649C101.6 16.6087 101.163 15.9471 100.868 15.2193C100.573 14.4914 100.427 13.7119 100.439 12.9268C100.439 9.45907 102.771 6.9371 106.029 6.9371C109.244 6.9371 111.556 9.52212 111.556 12.9268V13.4102L102.666 13.3892ZM102.876 11.4346H109.118C108.971 10.7369 108.592 10.1098 108.042 9.65552C107.492 9.20129 106.805 8.94682 106.092 8.93366C105.35 8.93793 104.63 9.18761 104.045 9.6438C103.459 10.1 103.041 10.737 102.855 11.4556L102.876 11.4346ZM123.998 18.6643H120.888L115.171 13.0319V18.6643H112.859V1.30469H115.171V11.5607L120.005 7.16828H123.283L117.483 12.3593L123.998 18.6643ZM126.835 9.24891H130.492V7.14726H126.835V3.99479H124.502V15.3437C124.506 16.0064 124.706 16.6531 125.076 17.2028C125.446 17.7524 125.97 18.1805 126.583 18.4331L126.73 18.4962C127.361 18.7624 128.012 18.8885 128.685 18.8745C129.301 18.8745 129.904 18.7974 130.492 18.6433L130.03 16.5416C129.526 16.6532 129.01 16.6956 128.496 16.6677L127.949 16.5626C127.65 16.4766 127.381 16.3092 127.172 16.0793C126.877 15.6449 126.758 15.1545 126.814 14.6081L126.835 9.24891ZM32.7445 6.9371C31.445 6.91261 30.1739 7.31906 29.1297 8.09301V1.30469H26.7969V18.6643H29.0456L29.0036 17.6555C30.0754 18.4962 31.3995 18.9165 32.7445 18.9165C33.5315 18.925 34.3122 18.7756 35.0405 18.4771C35.7687 18.1786 36.4296 17.7371 36.9842 17.1786C37.5388 16.6201 37.9757 15.9561 38.269 15.2258C38.5624 14.4954 38.7063 13.7137 38.6922 12.9268C38.7152 12.1375 38.5774 11.3518 38.2872 10.6175C37.997 9.8832 37.5604 9.21558 37.004 8.6553C36.4477 8.09501 35.7832 7.65375 35.0509 7.35837C34.3186 7.06299 33.5339 6.91966 32.7445 6.9371ZM32.7445 9.12281C33.2329 9.12523 33.7157 9.22601 34.1642 9.41911C34.6128 9.61222 35.0178 9.8937 35.3552 10.2468C35.6926 10.5998 35.9553 11.0172 36.1279 11.4741C36.3004 11.9309 36.3791 12.4178 36.3594 12.9058C36.3594 13.8645 35.9785 14.7839 35.3006 15.4618C34.6227 16.1398 33.7032 16.5206 32.7445 16.5206C31.7858 16.5206 30.8664 16.1398 30.1885 15.4618C29.5105 14.7839 29.1297 13.8645 29.1297 12.9058C29.1008 12.4157 29.1732 11.9248 29.3424 11.4639C29.5116 11.003 29.774 10.582 30.1132 10.227C30.4524 9.87202 30.8611 9.59077 31.3138 9.40079C31.7666 9.21081 32.2536 9.11618 32.7445 9.12281ZM85.4749 1.30469V8.09301C84.396 7.30839 83.1841 6.91608 81.839 6.91608C81.052 6.91028 80.2718 7.06242 79.5446 7.36349C78.8174 7.66456 78.158 8.10845 77.6054 8.66889C77.0528 9.22933 76.6182 9.89493 76.3274 10.6263C76.0366 11.3576 75.8955 12.1399 75.9124 12.9268C75.8894 13.7161 76.0272 14.5017 76.3174 15.2361C76.6076 15.9704 77.0442 16.638 77.6005 17.1983C78.1569 17.7586 78.8214 18.1998 79.5537 18.4952C80.2859 18.7906 81.0706 18.9339 81.86 18.9165C83.2051 18.9165 84.5081 18.4962 85.5799 17.6555L85.5589 18.6433H87.8077V1.30469H85.4749ZM81.839 16.7098C81.3507 16.7073 80.8678 16.6066 80.4193 16.4135C79.9708 16.2204 79.5657 15.9389 79.2284 15.5858C78.891 15.2327 78.6282 14.8153 78.4557 14.3585C78.2831 13.9016 78.2044 13.4147 78.2242 12.9268C78.1605 12.0522 78.4168 11.1842 78.9456 10.4846C79.4743 9.78502 80.2393 9.30147 81.0981 9.12405C81.9569 8.94663 82.8509 9.08745 83.6136 9.52027C84.3763 9.95309 84.9556 10.6484 85.2437 11.4767C85.4258 11.939 85.4959 12.4224 85.4538 12.9268C85.4828 13.4169 85.4104 13.9077 85.2411 14.3686C85.0719 14.8295 84.8095 15.2506 84.4704 15.6056C84.1312 15.9606 83.7224 16.2418 83.2697 16.4318C82.817 16.6218 82.3299 16.7164 81.839 16.7098ZM90.813 2.52364C90.6109 2.51768 90.4097 2.55344 90.222 2.62871C90.0344 2.70397 89.8642 2.81712 89.7222 2.96109C89.5802 3.10506 89.4694 3.27676 89.3968 3.46546C89.3241 3.65416 89.2911 3.85582 89.2999 4.05784C89.294 4.25814 89.3292 4.4575 89.4032 4.64372C89.4772 4.82993 89.5884 4.99907 89.7301 5.14076C89.8718 5.28244 90.041 5.39369 90.2272 5.46768C90.4134 5.54167 90.6128 5.57684 90.813 5.57103C91.1191 5.58054 91.4208 5.497 91.6783 5.33145C91.9358 5.16589 92.1371 4.92611 92.2555 4.64376C92.3739 4.36142 92.4039 4.04981 92.3415 3.75007C92.279 3.45034 92.1272 3.17659 91.9059 2.96499C91.7622 2.82385 91.5911 2.71372 91.4031 2.64141C91.2151 2.56911 91.0143 2.53618 90.813 2.54466" fill="#0A0A0A"/>
<path d="M13.0942 7.79721H10.1309L10.0258 7.9023V12.4208L10.0678 12.5049L11.7912 14.2282H11.9383L11.9593 14.1652V9.75174H13.1152C14.0319 9.75205 14.9296 10.013 15.7037 10.5042C16.4777 10.9954 17.096 11.6966 17.4866 12.5259C17.8079 13.2338 17.9454 14.0111 17.8867 14.7862C17.8279 15.5613 17.5747 16.3091 17.1504 16.9604C16.7649 17.559 16.2482 18.062 15.6393 18.4311C15.0305 18.8002 14.3455 19.0257 13.6365 19.0905C12.9275 19.1554 12.213 19.0578 11.5473 18.8052C10.8816 18.5527 10.2822 18.1517 9.79461 17.6329L2.73308 10.5504V10.5083L9.83664 3.36274C10.2623 2.90912 10.7752 2.54606 11.3445 2.29531C11.9138 2.04455 12.5278 1.91126 13.1499 1.90341C13.7719 1.89556 14.3891 2.01332 14.9646 2.24963C15.54 2.48593 16.0619 2.83594 16.4989 3.27867C16.9441 3.70958 17.2982 4.22557 17.5401 4.79601C17.782 5.36644 17.9067 5.97967 17.907 6.59927L17.949 6.62029C18.5552 6.96627 19.1133 7.39021 19.6093 7.88128H19.6513L19.7354 7.79721C19.9495 6.66602 19.86 5.4983 19.4761 4.41294C19.0921 3.32758 18.4274 2.36333 17.5497 1.61837C16.3651 0.602817 14.8643 0.0307303 13.3044 0.000104994H13.2203C12.3279 -0.00496133 11.4439 0.173374 10.6233 0.524052C9.8026 0.874729 9.06274 1.39027 8.44956 2.0387L0.0429688 10.4453V10.5924L8.40752 18.978C9.16781 19.7708 10.1134 20.3619 11.1591 20.6981C12.2048 21.0344 13.3177 21.1051 14.3976 20.9041C15.4774 20.703 16.4903 20.2363 17.3449 19.5462C18.1994 18.8561 18.8689 17.9642 19.2928 16.9509C19.7168 15.9376 19.8819 14.8347 19.7734 13.7417C19.6649 12.6486 19.2861 11.5998 18.6712 10.6896C18.0562 9.77944 17.2245 9.03658 16.2509 8.52798C15.2773 8.01939 14.1925 7.76103 13.0942 7.7762" fill="#52A795"/>
</g>
<defs>
<clipPath id="clip0_5544_1857">
<rect width="130.512" height="21.0165" fill="white"/>
</clipPath>
</defs>
</svg>
