<svg width="45" height="23" viewBox="0 0 45 23" fill="none" xmlns="http://www.w3.org/2000/svg">
<path fill-rule="evenodd" clip-rule="evenodd" d="M32.1599 0.099208L44.6436 22.0076H38.3191L36.9467 19.6266H30.6553L32.8544 15.7658H34.7476L32.1517 11.1857L29.4317 15.9394C29.0043 16.6835 28.5719 17.3366 28.1503 17.8988C26.0752 20.6353 22.7104 22.3879 18.9735 22.3879C12.7069 22.3879 7.56461 17.4275 7.56461 11.3097C7.56461 5.19189 12.6656 0.231485 18.9735 0.231485C21.1148 0.231485 23.0411 0.796971 24.7193 1.74441L22.0324 6.47332C21.1048 5.9288 20.0491 5.64063 18.9735 5.63832C15.7658 5.63832 13.1699 8.16812 13.1699 11.2849C13.1699 14.41 15.7658 16.9315 18.9735 16.9315C20.7179 16.9315 22.1482 16.218 23.1899 15.1788C23.6487 14.7332 24.1654 13.9883 24.3225 13.7238L32.1434 0L32.1599 0.099208ZM0 22.0076V0.677921H5.56391V22.0076H0Z" fill="#E5000B"/>
</svg>
