<svg width="111" height="16" viewBox="0 0 111 16" fill="none" xmlns="http://www.w3.org/2000/svg">
<g clip-path="url(#clip0_5544_1861)">
<path fill-rule="evenodd" clip-rule="evenodd" d="M110.524 7.51015V7.13464C110.524 3.88024 109.147 2.56597 105.33 2.56597H93.5639V15.7087H97.6945V5.82036H104.454C105.83 5.82036 106.456 6.25845 106.644 7.51015H110.524ZM29.1644 7.88565C30.0406 5.75778 31.3549 2.62855 31.3549 2.62855H27.2243C27.2243 2.62855 25.9726 5.94553 25.7223 6.57138C25.5345 7.00947 25.2842 7.57273 24.8461 7.82307H21.7794V6.25845C21.7168 4.13058 21.2162 2.69114 17.0856 2.69114H4.8816C0.250338 2.62855 0 4.38092 0 6.69655C0 9.82577 0.625846 10.5768 6.19587 10.5768C10.9523 10.5768 11.3904 10.6394 11.3904 11.7659C11.3904 12.7672 10.5768 12.8298 9.82578 12.8298H0C0.187754 15.208 1.56461 15.7087 4.75643 15.7087H9.26251C14.2067 15.7087 15.2706 15.1455 15.2706 11.7033C15.2706 7.94824 13.9564 7.57273 8.19858 7.63531C4.19317 7.63531 3.75507 7.63531 3.75507 6.50879C3.75507 5.82036 4.31833 5.50744 5.13193 5.50744H16.1468C17.5863 5.50744 17.8992 5.82036 17.9618 6.44621V15.7087H21.6543V10.702H27.0365C28.476 10.7645 28.7263 11.0149 28.7263 11.8285V15.6461H32.4188C32.4188 15.6461 32.4814 13.8312 32.4814 11.5156C32.4188 9.13734 32.0433 8.19858 29.1644 7.88565ZM87.3055 5.82036V12.3292H80.5463C78.9191 12.3292 78.2933 11.8285 78.2933 9.95094V8.19858C78.2933 6.32104 78.9191 5.82036 80.5463 5.82036H87.3055ZM74.5382 7.13464V11.14C74.5382 14.3944 75.8525 15.7087 79.6701 15.7087H91.1857V2.56597H79.6701C75.8525 2.56597 74.5382 3.88024 74.5382 7.13464ZM60.9574 0V2.62855H46.0622C41.3684 2.62855 41.1806 4.19316 41.1806 6.57138C41.1806 9.70061 41.8065 10.4516 47.3765 10.4516C52.1329 10.4516 52.571 10.5142 52.571 11.6407C52.571 12.6421 51.7574 12.7047 51.0064 12.7047H39.8664C38.8024 12.7047 38.3017 12.5795 38.2392 11.2026V2.62855H34.5467V12.7672V12.6421C34.7344 15.0203 36.1113 15.7713 39.2405 15.7713H50.318C55.2622 15.7713 56.3261 15.0203 56.3261 11.5781C56.3261 7.82307 55.0118 7.44756 49.254 7.51015C45.2486 7.51015 44.8105 7.51015 44.8105 6.38362C44.8105 5.69519 45.3738 5.38227 46.1874 5.38227H60.8948V11.14C60.8948 14.77 63.3356 15.8339 66.1519 15.8339H72.3477V12.3917C72.3477 12.3917 67.7791 12.4543 67.1532 12.4543C66.0267 12.4543 64.7124 11.9536 64.7124 10.9523V5.2571H72.5981V2.62855H64.7124V0H60.9574Z" fill="#D7040E"/>
</g>
<defs>
<clipPath id="clip0_5544_1861">
<rect width="110.524" height="15.7713" fill="white"/>
</clipPath>
</defs>
</svg>
