<svg width="56" height="56" viewBox="0 0 56 56" fill="none" xmlns="http://www.w3.org/2000/svg">
<rect width="56" height="56" rx="14" fill="#F5F5F7"/>
<g clip-path="url(#clip0_5544_2857)">
<path d="M26.6901 8.01076C26.6041 8.01858 26.3304 8.04595 26.0841 8.0655C20.4027 8.57764 15.0811 11.6427 11.7107 16.3536C9.83382 18.973 8.63343 21.9442 8.17986 25.0913C8.01955 26.1899 8 26.5144 8 28.0039C8 29.4934 8.01955 29.8179 8.17986 30.9165C9.26686 38.4266 14.6119 44.7365 21.8612 47.0744C23.1593 47.4927 24.5279 47.7781 26.0841 47.9502C26.6901 48.0166 29.3099 48.0166 29.9159 47.9502C32.6021 47.653 34.8778 46.9884 37.1222 45.8429C37.4663 45.667 37.5327 45.6201 37.4858 45.581C37.4545 45.5575 35.9883 43.5911 34.2287 41.2141L31.0303 36.8941L27.0225 30.9634C24.8172 27.7029 23.0029 25.0366 22.9873 25.0366C22.9717 25.0327 22.956 27.6677 22.9482 30.8852C22.9365 36.5188 22.9326 36.7455 22.8622 36.8785C22.7605 37.07 22.6823 37.1482 22.5181 37.2342C22.393 37.2968 22.2835 37.3085 21.6931 37.3085H21.0166L20.8368 37.1951C20.7195 37.1209 20.6334 37.0231 20.5748 36.9097L20.4927 36.7338L20.5005 28.8953L20.5122 21.0528L20.6334 20.9004C20.696 20.8183 20.8289 20.7127 20.9228 20.6619C21.0831 20.5837 21.1456 20.5759 21.8221 20.5759C22.6197 20.5759 22.7527 20.6072 22.9599 20.8339C23.0186 20.8965 25.1887 24.1648 27.7849 28.1017C30.3812 32.0385 33.9316 37.4141 35.6755 40.053L38.8426 44.8499L39.0029 44.7444C40.4223 43.8217 41.9238 42.5081 43.1124 41.1398C45.6422 38.2351 47.2727 34.6931 47.8201 30.9165C47.9804 29.8179 48 29.4934 48 28.0039C48 26.5144 47.9804 26.1899 47.8201 25.0913C46.7331 17.5812 41.3881 11.2713 34.1388 8.9334C32.8602 8.519 31.4995 8.23361 29.9746 8.06159C29.5992 8.02249 27.0147 7.97949 26.6901 8.01076ZM34.8778 20.1067C35.0655 20.2006 35.218 20.3804 35.2727 20.5681C35.304 20.6697 35.3118 22.8434 35.304 27.742L35.2923 34.7712L34.0528 32.8712L32.8094 30.9712V25.8615C32.8094 22.558 32.825 20.701 32.8485 20.6111C32.911 20.3921 33.0479 20.2201 33.2356 20.1185C33.3959 20.0364 33.4545 20.0285 34.0684 20.0285C34.6471 20.0285 34.7488 20.0364 34.8778 20.1067Z" fill="black"/>
</g>
<defs>
<clipPath id="clip0_5544_2857">
<rect width="40" height="40" fill="white" transform="translate(8 8)"/>
</clipPath>
</defs>
</svg>
