<svg width="56" height="56" viewBox="0 0 56 56" fill="none" xmlns="http://www.w3.org/2000/svg">
<rect width="56" height="56" rx="14" fill="black"/>
<path d="M43.192 24.7522C43.9968 22.3134 43.7197 19.6419 42.4327 17.4236C40.4974 14.0212 36.6066 12.2708 32.8068 13.0945C31.1164 11.1717 28.6878 10.0782 26.1416 10.0939C22.2575 10.085 18.8113 12.6099 17.6164 16.3413C15.1212 16.8573 12.9675 18.4343 11.7071 20.6693C9.75735 24.0628 10.2018 28.3404 12.8067 31.2503C12.002 33.6891 12.2791 36.3607 13.566 38.5789C15.5014 41.9813 19.3921 43.7318 23.192 42.908C24.8813 44.8308 27.311 45.9243 29.8572 45.9075C33.7435 45.9176 37.1908 43.3904 38.3857 39.6556C40.8809 39.1397 43.0346 37.5627 44.295 35.3276C46.2425 31.9342 45.7969 27.6599 43.1931 24.75L43.192 24.7522ZM29.8594 43.5672C28.3042 43.5695 26.7978 43.02 25.604 42.0138C25.6583 41.9847 25.7525 41.9321 25.8135 41.894L32.8766 37.7753C33.238 37.5683 33.4597 37.1799 33.4575 36.7602V26.7063L36.4426 28.4467C36.4747 28.4624 36.4958 28.4937 36.5002 28.5295V36.8553C36.4958 40.5577 33.5262 43.5594 29.8594 43.5672ZM15.5779 37.4082C14.7987 36.0495 14.5182 34.4569 14.7854 32.9112C14.8375 32.9426 14.9295 32.9997 14.9949 33.0377L22.058 37.1564C22.416 37.3679 22.8594 37.3679 23.2186 37.1564L31.8413 32.1289V35.6097C31.8436 35.6455 31.8269 35.6802 31.7992 35.7026L24.6596 39.8649C21.4794 41.7138 17.418 40.6148 15.579 37.4082H15.5779ZM13.719 21.8411C14.4949 20.4802 15.7198 19.4393 17.1785 18.8987C17.1785 18.9603 17.1752 19.0689 17.1752 19.145V27.3835C17.173 27.8021 17.3947 28.1904 17.7549 28.3975L26.3777 33.4238L23.3926 35.1642C23.3627 35.1844 23.325 35.1877 23.2917 35.1732L16.151 31.0075C12.9774 29.1518 11.8889 25.0522 13.7179 21.8423L13.719 21.8411ZM38.245 27.604L29.6222 22.5765L32.6073 20.8372C32.6372 20.8171 32.6749 20.8137 32.7082 20.8283L39.8489 24.9906C43.028 26.8451 44.1176 30.9515 42.2809 34.1614C41.5038 35.5201 40.2801 36.561 38.8225 37.1027V28.618C38.8258 28.1994 38.6052 27.8121 38.2461 27.604H38.245ZM41.2156 23.0891C41.1635 23.0566 41.0715 23.0006 41.0061 22.9626L33.943 18.8439C33.585 18.6324 33.1416 18.6324 32.7824 18.8439L24.1597 23.8714V20.3906C24.1574 20.3548 24.1741 20.3201 24.2018 20.2978L31.3414 16.1388C34.5216 14.2865 38.5875 15.3889 40.4209 18.601C41.1957 19.9575 41.4761 21.5457 41.2134 23.0891H41.2156ZM22.5369 29.2928L19.5507 27.5525C19.5185 27.5368 19.4974 27.5055 19.493 27.4697V19.1438C19.4952 15.437 22.4737 12.4331 26.1449 12.4353C27.6979 12.4353 29.201 12.986 30.3948 13.9888C30.3405 14.0179 30.2474 14.0705 30.1853 14.1085L23.1221 18.2272C22.7608 18.4343 22.5391 18.8215 22.5413 19.2412L22.5369 29.2906V29.2928ZM24.1586 25.7629L27.9994 23.5233L31.8402 25.7617V30.2397L27.9994 32.4781L24.1586 30.2397V25.7629Z" fill="white"/>
</svg>
