<svg width="56" height="56" viewBox="0 0 56 56" fill="none" xmlns="http://www.w3.org/2000/svg">
<rect width="56" height="56" rx="14" fill="black"/>
<rect width="56" height="56" rx="14" fill="#2B2E34"/>
<g clip-path="url(#clip0_5544_2849)">
<path d="M28.0002 31.3872C29.8708 31.3872 31.3872 29.8708 31.3872 28.0002C31.3872 26.1297 29.8708 24.6133 28.0002 24.6133C26.1297 24.6133 24.6133 26.1297 24.6133 28.0002C24.6133 29.8708 26.1297 31.3872 28.0002 31.3872Z" fill="#85D9F7"/>
<path d="M28.002 34.9388C38.0392 34.9388 46.176 31.8321 46.176 27.9997C46.176 24.1673 38.0392 21.0605 28.002 21.0605C17.9649 21.0605 9.82812 24.1673 9.82812 27.9997C9.82812 31.8321 17.9649 34.9388 28.002 34.9388Z" stroke="#85D9F7" stroke-width="1.65217"/>
<path d="M21.9938 31.4692C27.0124 40.1617 33.7713 45.6549 37.0902 43.7387C40.4092 41.8225 39.0313 33.2225 34.0127 24.5301C28.9942 15.8376 22.2353 10.3444 18.9163 12.2606C15.5974 14.1768 16.9752 22.7768 21.9938 31.4692Z" stroke="#85D9F7" stroke-width="1.65217"/>
<path d="M21.9918 24.5304C16.9732 33.2229 15.5953 41.8229 18.9143 43.739C22.2332 45.6552 28.9921 40.162 34.0107 31.4695C39.0293 22.7771 40.4071 14.1771 37.0882 12.2609C33.7693 10.3447 27.0104 15.838 21.9918 24.5304Z" stroke="#85D9F7" stroke-width="1.65217"/>
</g>
<defs>
<clipPath id="clip0_5544_2849">
<rect width="38" height="33.8092" fill="white" transform="translate(9 11.0957)"/>
</clipPath>
</defs>
</svg>
